<?xml version="1.0" encoding="utf-8"?>
<!-- Generator: Adobe Illustrator 16.0.0, SVG Export Plug-In . SVG Version: 6.00 Build 0)  -->
<!DOCTYPE svg PUBLIC "-//W3C//DTD SVG 1.1//EN" "http://www.w3.org/Graphics/SVG/1.1/DTD/svg11.dtd">
<svg version="1.1" id="Layer_1" xmlns="http://www.w3.org/2000/svg" xmlns:xlink="http://www.w3.org/1999/xlink" x="0px" y="0px"
	 width="115.395px" height="15.006px" viewBox="0 0 115.395 15.006" enable-background="new 0 0 115.395 15.006"
	 xml:space="preserve">
<g>
	<linearGradient id="SVGID_1_" gradientUnits="userSpaceOnUse" x1="28.8486" y1="15.0063" x2="28.8486" y2="0">
		<stop  offset="0" style="stop-color:#4B8AC8"/>
		<stop  offset="0.2462" style="stop-color:#4C8BC9"/>
		<stop  offset="0.3349" style="stop-color:#4C8FCC"/>
		<stop  offset="0.3981" style="stop-color:#4D96D1"/>
		<stop  offset="0.449" style="stop-color:#4FA1D9"/>
		<stop  offset="0.4923" style="stop-color:#52AFE2"/>
		<stop  offset="0.5" style="stop-color:#53B2E4"/>
		<stop  offset="0.5111" style="stop-color:#59B4E5"/>
		<stop  offset="0.5665" style="stop-color:#6EBAE7"/>
		<stop  offset="0.6351" style="stop-color:#7BBEE9"/>
		<stop  offset="0.7317" style="stop-color:#83C1EA"/>
		<stop  offset="1" style="stop-color:#85C2EA"/>
	</linearGradient>
	<path fill="url(#SVGID_1_)" d="M57.697,14.006c0,0.55-0.45,1-1,1H1c-0.55,0-1-0.45-1-1V1c0-0.55,0.45-1,1-1h55.697
		c0.55,0,1,0.45,1,1V14.006z"/>
</g>
<g>
	<linearGradient id="SVGID_2_" gradientUnits="userSpaceOnUse" x1="86.5464" y1="15.0063" x2="86.5464" y2="0">
		<stop  offset="0" style="stop-color:#67BD45"/>
		<stop  offset="0.2629" style="stop-color:#69BD46"/>
		<stop  offset="0.3576" style="stop-color:#70BF49"/>
		<stop  offset="0.4251" style="stop-color:#7BC24F"/>
		<stop  offset="0.4793" style="stop-color:#89C65A"/>
		<stop  offset="0.5" style="stop-color:#90C960"/>
		<stop  offset="0.5707" style="stop-color:#90C960"/>
		<stop  offset="1" style="stop-color:#90C960"/>
	</linearGradient>
	<path fill="url(#SVGID_2_)" d="M115.395,14.006c0,0.55-0.451,1-1,1H58.697c-0.55,0-1-0.45-1-1V1c0-0.55,0.45-1,1-1h55.697
		c0.549,0,1,0.45,1,1V14.006z"/>
</g>
</svg>
