<?xml version="1.0" encoding="utf-8"?>
<!-- Generator: Adobe Illustrator 16.0.0, SVG Export Plug-In . SVG Version: 6.00 Build 0)  -->
<!DOCTYPE svg PUBLIC "-//W3C//DTD SVG 1.1//EN" "http://www.w3.org/Graphics/SVG/1.1/DTD/svg11.dtd">
<svg version="1.1" id="Layer_1" xmlns="http://www.w3.org/2000/svg" xmlns:xlink="http://www.w3.org/1999/xlink" x="0px" y="0px"
	 width="200px" height="304.6865234px" viewBox="0 0 200 304.6865234" enable-background="new 0 0 200 304.6865234"
	 xml:space="preserve">
<g>
	<g>
		
			<ellipse transform="matrix(0.9997804 0.0209558 -0.0209558 0.9997804 1.4862976 -2.0802383)" fill-rule="evenodd" clip-rule="evenodd" fill="#8BC540" cx="100" cy="69.8774414" rx="54.4533653" ry="69.88694"/>
		
			<ellipse transform="matrix(0.9997887 0.0205572 -0.0205572 0.9997887 1.4530869 -2.0441132)" fill-rule="evenodd" clip-rule="evenodd" fill="#8CC540" cx="100.1513672" cy="69.6557617" rx="54.202858" ry="69.5649872"/>
		
			<ellipse transform="matrix(0.999797 0.0201503 -0.0201503 0.999797 1.4194946 -2.0070572)" fill-rule="evenodd" clip-rule="evenodd" fill="#8CC541" cx="100.3037109" cy="69.4348145" rx="53.9523621" ry="69.243309"/>
		
			<ellipse transform="matrix(0.9998052 0.0197401 -0.0197401 0.9998052 1.3858414 -1.9694977)" fill-rule="evenodd" clip-rule="evenodd" fill="#8DC541" cx="100.4550781" cy="69.2128906" rx="53.7008934" ry="68.9216309"/>
		
			<ellipse transform="matrix(0.9998131 0.0193301 -0.0193301 0.9998131 1.352417 -1.9318619)" fill-rule="evenodd" clip-rule="evenodd" fill="#8DC542" cx="100.6074219" cy="68.9916992" rx="53.4504204" ry="68.5997314"/>
		
			<ellipse transform="matrix(0.9998211 0.0189163 -0.0189163 0.9998211 1.3189011 -1.8936768)" fill-rule="evenodd" clip-rule="evenodd" fill="#8EC642" cx="100.7587891" cy="68.7700195" rx="53.1999512" ry="68.2788315"/>
		
			<ellipse transform="matrix(0.9998291 0.0184894 -0.0184894 0.9998291 1.2846756 -1.8540497)" fill-rule="evenodd" clip-rule="evenodd" fill="#8EC643" cx="100.9101563" cy="68.5488281" rx="52.949482" ry="67.9569321"/>
		
			<ellipse transform="matrix(0.9998367 0.0180677 -0.0180677 0.9998367 1.2510223 -1.8148117)" fill-rule="evenodd" clip-rule="evenodd" fill="#8FC643" cx="101.0625" cy="68.3276367" rx="52.6990318" ry="67.6350784"/>
		
			<ellipse transform="matrix(0.9998444 0.0176419 -0.0176419 0.9998444 1.2172699 -1.7750092)" fill-rule="evenodd" clip-rule="evenodd" fill="#8FC644" cx="101.2138672" cy="68.105957" rx="52.4485931" ry="67.3132095"/>
		
			<ellipse transform="matrix(0.9998519 0.0172075 -0.0172075 0.9998519 1.1831207 -1.7342072)" fill-rule="evenodd" clip-rule="evenodd" fill="#90C645" cx="101.3657227" cy="67.8840332" rx="52.19767" ry="66.9925995"/>
		
			<ellipse transform="matrix(0.9998594 0.0167688 -0.0167688 0.9998594 1.1489029 -1.6928101)" fill-rule="evenodd" clip-rule="evenodd" fill="#90C645" cx="101.5170898" cy="67.6630859" rx="51.9472466" ry="66.6705017"/>
		
			<ellipse transform="matrix(0.9998665 0.0163353 -0.0163353 0.9998665 1.1152496 -1.6517944)" fill-rule="evenodd" clip-rule="evenodd" fill="#91C746" cx="101.6694336" cy="67.4421387" rx="51.6968384" ry="66.3484421"/>
		
			<ellipse transform="matrix(0.9998739 0.0158836 -0.0158836 0.9998739 1.0805435 -1.6088028)" fill-rule="evenodd" clip-rule="evenodd" fill="#91C747" cx="101.8208008" cy="67.220459" rx="51.4454536" ry="66.0266495"/>
		
			<ellipse transform="matrix(0.9998809 0.0154366 -0.0154366 0.9998809 1.0463867 -1.566124)" fill-rule="evenodd" clip-rule="evenodd" fill="#91C747" cx="101.9726563" cy="66.9987793" rx="51.1955528" ry="65.7058334"/>
		
			<ellipse transform="matrix(0.9998878 0.0149806 -0.0149806 0.9998878 1.0118256 -1.5223999)" fill-rule="evenodd" clip-rule="evenodd" fill="#92C748" cx="102.1245117" cy="66.7773438" rx="50.9446831" ry="65.3843002"/>
		
			<ellipse transform="matrix(0.9998946 0.0145201 -0.0145201 0.9998946 0.9771805 -1.478035)" fill-rule="evenodd" clip-rule="evenodd" fill="#92C749" cx="102.2758789" cy="66.5563965" rx="50.6943092" ry="65.0622787"/>
		
			<ellipse transform="matrix(0.9999012 0.0140599 -0.0140599 0.9999012 0.9427795 -1.4335632)" fill-rule="evenodd" clip-rule="evenodd" fill="#93C749" cx="102.4277344" cy="66.3347168" rx="50.4434624" ry="64.7410202"/>
		
			<ellipse transform="matrix(0.9999077 0.01359 -0.01359 0.9999077 0.9079361 -1.3879471)" fill-rule="evenodd" clip-rule="evenodd" fill="#93C84A" cx="102.5795898" cy="66.112793" rx="50.1935997" ry="64.4195328"/>
		
			<ellipse transform="matrix(0.9999139 0.0131205 -0.0131205 0.9999139 0.8733749 -1.3422165)" fill-rule="evenodd" clip-rule="evenodd" fill="#94C84B" cx="102.7314453" cy="65.8916016" rx="49.9427757" ry="64.0983047"/>
		
			<ellipse transform="matrix(0.9999201 0.0126414 -0.0126414 0.9999201 0.8383942 -1.2953339)" fill-rule="evenodd" clip-rule="evenodd" fill="#94C84B" cx="102.8833008" cy="65.6706543" rx="49.6919594" ry="63.7763367"/>
		
			<ellipse transform="matrix(0.9999261 0.0121571 -0.0121571 0.9999261 0.8032837 -1.2477722)" fill-rule="evenodd" clip-rule="evenodd" fill="#95C84C" cx="103.0351563" cy="65.4487305" rx="49.442131" ry="63.4553871"/>
		
			<ellipse transform="matrix(0.9999318 0.0116781 -0.0116781 0.9999318 0.7687683 -1.2005692)" fill-rule="evenodd" clip-rule="evenodd" fill="#95C84D" cx="103.1860352" cy="65.2272949" rx="49.1913452" ry="63.1334496"/>
		
			<ellipse transform="matrix(0.9999375 0.0111841 -0.0111841 0.9999375 0.7335052 -1.1516876)" fill-rule="evenodd" clip-rule="evenodd" fill="#96C84D" cx="103.3383789" cy="65.0063477" rx="48.9410477" ry="62.8120346"/>
		
			<ellipse transform="matrix(0.9999429 0.0106851 -0.0106851 0.9999429 0.698143 -1.1021042)" fill-rule="evenodd" clip-rule="evenodd" fill="#96C94E" cx="103.4907227" cy="64.7849121" rx="48.6907692" ry="62.4906349"/>
		
			<ellipse transform="matrix(0.9999481 0.0101809 -0.0101809 0.9999481 0.6626892 -1.0518188)" fill-rule="evenodd" clip-rule="evenodd" fill="#96C94F" cx="103.6416016" cy="64.5634766" rx="48.4400101" ry="62.1692352"/>
		
			<ellipse transform="matrix(0.9999532 0.0096817 -0.0096817 0.9999532 0.6277924 -1.0018768)" fill-rule="evenodd" clip-rule="evenodd" fill="#97C94F" cx="103.793457" cy="64.3415527" rx="48.18927" ry="61.8478699"/>
		
			<ellipse transform="matrix(0.999958 0.0091617 -0.0091617 0.999958 0.5918198 -0.9496231)" fill-rule="evenodd" clip-rule="evenodd" fill="#97C950" cx="103.9453125" cy="64.1203613" rx="47.9395103" ry="61.5267487"/>
		
			<ellipse transform="matrix(0.9999626 0.0086468 -0.0086468 0.9999626 0.5564117 -0.8977127)" fill-rule="evenodd" clip-rule="evenodd" fill="#98C951" cx="104.097168" cy="63.8991699" rx="47.6887932" ry="61.2056618"/>
		
			<ellipse transform="matrix(0.999967 0.008116 -0.008116 0.999967 0.5202408 -0.8439789)" fill-rule="evenodd" clip-rule="evenodd" fill="#98CA52" cx="104.2485352" cy="63.6774902" rx="47.4385719" ry="60.8840904"/>
		
			<ellipse transform="matrix(0.9999712 0.0075951 -0.0075951 0.9999712 0.4849625 -0.7910919)" fill-rule="evenodd" clip-rule="evenodd" fill="#99CA52" cx="104.3999023" cy="63.4560547" rx="47.1883736" ry="60.5622902"/>
		
			<ellipse transform="matrix(0.999975 0.0070634 -0.0070634 0.999975 0.4492645 -0.7369156)" fill-rule="evenodd" clip-rule="evenodd" fill="#99CA53" cx="104.5522461" cy="63.2348633" rx="46.9381828" ry="60.2412453"/>
		
			<ellipse transform="matrix(0.9999787 0.0065209 -0.0065209 0.9999787 0.4131317 -0.6814232)" fill-rule="evenodd" clip-rule="evenodd" fill="#99CA54" cx="104.7041016" cy="63.0134277" rx="46.6875191" ry="59.9204636"/>
		
			<ellipse transform="matrix(0.9999822 0.0059724 -0.0059724 0.9999822 0.3768921 -0.6251259)" fill-rule="evenodd" clip-rule="evenodd" fill="#9ACA54" cx="104.8554688" cy="62.7919922" rx="46.4373512" ry="59.5987167"/>
		
			<ellipse transform="matrix(0.9999853 0.0054234 -0.0054234 0.9999853 0.340889 -0.5685768)" fill-rule="evenodd" clip-rule="evenodd" fill="#9ACA55" cx="105.0073242" cy="62.5703125" rx="46.1867142" ry="59.2772408"/>
		
			<ellipse transform="matrix(0.9999882 0.004863 -0.004863 0.9999882 0.304451 -0.5106544)" fill-rule="evenodd" clip-rule="evenodd" fill="#9BCB56" cx="105.1591797" cy="62.348877" rx="45.9360886" ry="58.9565086"/>
		
			<ellipse transform="matrix(0.9999908 0.0042964 -0.0042964 0.9999908 0.2679062 -0.451889)" fill-rule="evenodd" clip-rule="evenodd" fill="#9BCB57" cx="105.3110352" cy="62.1279297" rx="45.6864586" ry="58.6353035"/>
		
			<ellipse transform="matrix(0.999993 0.0037291 -0.0037291 0.999993 0.2315826 -0.392849)" fill-rule="evenodd" clip-rule="evenodd" fill="#9CCB57" cx="105.4628906" cy="61.90625" rx="45.4358635" ry="58.3138847"/>
		
			<ellipse transform="matrix(0.9999951 0.00315 -0.00315 0.9999951 0.1948242 -0.3323784)" fill-rule="evenodd" clip-rule="evenodd" fill="#9CCB58" cx="105.6142578" cy="61.6843262" rx="45.1857719" ry="57.9927216"/>
		
			<ellipse transform="matrix(0.9999967 0.0025753 -0.0025753 0.9999967 0.158638 -0.272171)" fill-rule="evenodd" clip-rule="evenodd" fill="#9CCB59" cx="105.7661133" cy="61.4633789" rx="44.9361839" ry="57.6720657"/>
		
			<ellipse transform="matrix(0.999998 0.0019833 -0.0019833 0.999998 0.121666 -0.2099419)" fill-rule="evenodd" clip-rule="evenodd" fill="#9DCB5A" cx="105.9179688" cy="61.2424316" rx="44.6856346" ry="57.3504562"/>
		
			<ellipse transform="matrix(0.999999 0.0013846 -0.0013846 0.999999 0.0845871 -0.146801)" fill-rule="evenodd" clip-rule="evenodd" fill="#9DCC5A" cx="106.0693359" cy="61.0205078" rx="44.4355888" ry="57.0293541"/>
		
			<ellipse transform="matrix(0.9999997 0.0007846 -0.0007846 0.9999997 0.0477371 -0.0833244)" fill-rule="evenodd" clip-rule="evenodd" fill="#9ECC5B" cx="106.2211914" cy="60.7988281" rx="44.1850739" ry="56.7080231"/>
		
			<ellipse transform="matrix(1 0.0001667 -0.0001667 1 0.0101013 -0.0177345)" fill-rule="evenodd" clip-rule="evenodd" fill="#9ECC5C" cx="106.3730469" cy="60.5776367" rx="43.9345703" ry="56.387207"/>
		
			<ellipse transform="matrix(0.9999999 -0.0004471 0.0004471 0.9999999 -0.0269699 0.0476341)" fill-rule="evenodd" clip-rule="evenodd" fill="#9FCC5D" cx="106.5253906" cy="60.3564453" rx="43.6845741" ry="56.0664101"/>
		
			<ellipse transform="matrix(0.9999994 -0.0010736 0.0010736 0.9999994 -0.0644989 0.114563)" fill-rule="evenodd" clip-rule="evenodd" fill="#9FCC5E" cx="106.6767578" cy="60.1350098" rx="43.434597" ry="55.7449036"/>
		
			<ellipse transform="matrix(0.9999986 -0.0017017 0.0017017 0.9999986 -0.101799 0.1818695)" fill-rule="evenodd" clip-rule="evenodd" fill="#9FCD5E" cx="106.828125" cy="59.9128418" rx="43.1846313" ry="55.4241562"/>
		
			<ellipse transform="matrix(0.9999973 -0.0023371 0.0023371 0.9999973 -0.1392136 0.2501869)" fill-rule="evenodd" clip-rule="evenodd" fill="#A0CD5F" cx="106.9799805" cy="59.6921387" rx="42.9342003" ry="55.102932"/>
		
			<ellipse transform="matrix(0.9999955 -0.0029857 0.0029857 0.9999955 -0.1770782 0.3201294)" fill-rule="evenodd" clip-rule="evenodd" fill="#A0CD60" cx="107.1323242" cy="59.4711914" rx="42.6842728" ry="54.7819786"/>
		
			<ellipse transform="matrix(0.9999934 -0.0036419 0.0036419 0.9999934 -0.2150726 0.3911095)" fill-rule="evenodd" clip-rule="evenodd" fill="#A1CD61" cx="107.2836914" cy="59.2492676" rx="42.4343643" ry="54.4610519"/>
		
			<ellipse transform="matrix(0.9999907 -0.0043059 0.0043059 0.9999907 -0.2531662 0.4631538)" fill-rule="evenodd" clip-rule="evenodd" fill="#A1CD62" cx="107.4345703" cy="59.0273438" rx="42.1839828" ry="54.1411285"/>
		
			<ellipse transform="matrix(0.9999877 -0.0049662 0.0049662 0.9999877 -0.2907181 0.5350189)" fill-rule="evenodd" clip-rule="evenodd" fill="#A2CE62" cx="107.5869141" cy="58.8063965" rx="41.9341087" ry="53.8192673"/>
		
			<ellipse transform="matrix(0.9999841 -0.0056461 0.0056461 0.9999841 -0.3290634 0.6092377)" fill-rule="evenodd" clip-rule="evenodd" fill="#A2CE63" cx="107.7387695" cy="58.5849609" rx="41.6837692" ry="53.4989014"/>
		
			<ellipse transform="matrix(0.9999799 -0.0063342 0.0063342 0.9999799 -0.3675232 0.6845703)" fill-rule="evenodd" clip-rule="evenodd" fill="#A2CE64" cx="107.8901367" cy="58.3635254" rx="41.4339371" ry="53.1775856"/>
		
			<ellipse transform="matrix(0.9999753 -0.0070246 0.0070246 0.9999753 -0.4057617 0.7603912)" fill-rule="evenodd" clip-rule="evenodd" fill="#A3CE65" cx="108.0419922" cy="58.1418457" rx="41.1846085" ry="52.8575058"/>
		
			<ellipse transform="matrix(0.9999701 -0.0077356 0.0077356 0.9999701 -0.4448166 0.8386726)" fill-rule="evenodd" clip-rule="evenodd" fill="#A3CE66" cx="108.1938477" cy="57.9206543" rx="40.93433" ry="52.5359917"/>
		
			<ellipse transform="matrix(0.9999644 -0.0084373 0.0084373 0.9999644 -0.4829712 0.9161911)" fill-rule="evenodd" clip-rule="evenodd" fill="#A4CF66" cx="108.3457031" cy="57.699707" rx="40.684063" ry="52.2152367"/>
		
			<ellipse transform="matrix(0.999958 -0.0091655 0.0091655 0.999958 -0.5222549 0.9968491)" fill-rule="evenodd" clip-rule="evenodd" fill="#A4CF67" cx="108.4975586" cy="57.4780273" rx="40.434803" ry="51.894268"/>
		
			<ellipse transform="matrix(0.9999511 -0.009891 0.009891 0.9999511 -0.560997 1.077446)" fill-rule="evenodd" clip-rule="evenodd" fill="#A4CF68" cx="108.6489258" cy="57.2558594" rx="40.1840935" ry="51.5742912"/>
		
			<ellipse transform="matrix(0.9999436 -0.0106252 0.0106252 0.9999436 -0.5998611 1.1592522)" fill-rule="evenodd" clip-rule="evenodd" fill="#A5CF69" cx="108.8007813" cy="57.034668" rx="39.9348717" ry="51.2533836"/>
		
			<ellipse transform="matrix(0.9999353 -0.0113749 0.0113749 0.9999353 -0.6392059 1.2430077)" fill-rule="evenodd" clip-rule="evenodd" fill="#A5CF6A" cx="108.953125" cy="56.8137207" rx="39.6851845" ry="50.9327354"/>
		
			<ellipse transform="matrix(0.9999264 -0.0121281 0.0121281 0.9999264 -0.6783295 1.3273849)" fill-rule="evenodd" clip-rule="evenodd" fill="#A6D06A" cx="109.1040039" cy="56.592041" rx="39.4350281" ry="50.6123619"/>
		
			<ellipse transform="matrix(0.9999169 -0.0128969 0.0128969 0.9999169 -0.7179184 1.4137459)" fill-rule="evenodd" clip-rule="evenodd" fill="#A6D06B" cx="109.2553711" cy="56.3706055" rx="39.1853867" ry="50.2912979"/>
		
			<ellipse transform="matrix(0.9999065 -0.0136756 0.0136756 0.9999065 -0.7576447 1.5014725)" fill-rule="evenodd" clip-rule="evenodd" fill="#A7D06C" cx="109.4077148" cy="56.1491699" rx="38.9357719" ry="49.9707336"/>
		
			<ellipse transform="matrix(0.9998955 -0.0144582 0.0144582 0.9998955 -0.7971649 1.5898857)" fill-rule="evenodd" clip-rule="evenodd" fill="#A7D06D" cx="109.5595703" cy="55.9279785" rx="38.6856842" ry="49.6504517"/>
		
			<ellipse transform="matrix(0.9998836 -0.0152573 0.0152573 0.9998836 -0.8371658 1.6803894)" fill-rule="evenodd" clip-rule="evenodd" fill="#A7D06E" cx="109.7114258" cy="55.706543" rx="38.435627" ry="49.3299599"/>
		
			<ellipse transform="matrix(0.9998708 -0.0160731 0.0160731 0.9998708 -0.8776245 1.7730064)" fill-rule="evenodd" clip-rule="evenodd" fill="#A8D16E" cx="109.862793" cy="55.4848633" rx="38.1860847" ry="49.009243"/>
		
			<ellipse transform="matrix(0.9998575 -0.0168803 0.0168803 0.9998575 -0.9171906 1.8649635)" fill-rule="evenodd" clip-rule="evenodd" fill="#A8D16F" cx="110.0151367" cy="55.2634277" rx="37.9365578" ry="48.6888199"/>
		
			<ellipse transform="matrix(0.9998431 -0.0177111 0.0177111 0.9998431 -0.9575806 1.9598083)" fill-rule="evenodd" clip-rule="evenodd" fill="#A9D170" cx="110.1665039" cy="55.0424805" rx="37.6870651" ry="48.3684311"/>
		
			<ellipse transform="matrix(0.9998279 -0.0185533 0.0185533 0.9998279 -0.9981079 2.0562019)" fill-rule="evenodd" clip-rule="evenodd" fill="#A9D171" cx="110.3183594" cy="54.8205566" rx="37.4371071" ry="48.0485382"/>
		
			<ellipse transform="matrix(0.9998119 -0.0193933 0.0193933 0.9998119 -1.0380859 2.1526413)" fill-rule="evenodd" clip-rule="evenodd" fill="#AAD172" cx="110.4697266" cy="54.5991211" rx="37.1876564" ry="47.7277298"/>
		
			<ellipse transform="matrix(0.9997948 -0.0202579 0.0202579 0.9997948 -1.0788727 2.2521095)" fill-rule="evenodd" clip-rule="evenodd" fill="#AAD272" cx="110.6210938" cy="54.3776855" rx="36.9382439" ry="47.407444"/>
		
			<ellipse transform="matrix(0.9997767 -0.0211342 0.0211342 0.9997767 -1.1198196 2.3532066)" fill-rule="evenodd" clip-rule="evenodd" fill="#AAD273" cx="110.7734375" cy="54.1567383" rx="36.688858" ry="47.0871773"/>
		
			<ellipse transform="matrix(0.9997576 -0.0220161 0.0220161 0.9997576 -1.160553 2.4552193)" fill-rule="evenodd" clip-rule="evenodd" fill="#ABD274" cx="110.925293" cy="53.9350586" rx="36.4390068" ry="46.7671738"/>
		
			<ellipse transform="matrix(0.9997372 -0.0229234 0.0229234 0.9997372 -1.2021027 2.5603676)" fill-rule="evenodd" clip-rule="evenodd" fill="#ABD275" cx="111.0766602" cy="53.7133789" rx="36.1896858" ry="46.4467583"/>
		
			<ellipse transform="matrix(0.999716 -0.0238296 0.0238296 0.999716 -1.2431107 2.6657333)" fill-rule="evenodd" clip-rule="evenodd" fill="#ACD275" cx="111.2290039" cy="53.4921875" rx="35.9403839" ry="46.1263542"/>
		
			<ellipse transform="matrix(0.9996937 -0.0247488 0.0247488 0.9996937 -1.2842789 2.7728615)" fill-rule="evenodd" clip-rule="evenodd" fill="#ACD376" cx="111.3808594" cy="53.2709961" rx="35.6906204" ry="45.8065109"/>
		
			<ellipse transform="matrix(0.9996698 -0.0256944 0.0256944 0.9996698 -1.3262482 2.8832664)" fill-rule="evenodd" clip-rule="evenodd" fill="#ADD377" cx="111.5322266" cy="53.0493164" rx="35.4413872" ry="45.4866791"/>
		
			<ellipse transform="matrix(0.9996453 -0.0266325 0.0266325 0.9996453 -1.3673248 2.9931526)" fill-rule="evenodd" clip-rule="evenodd" fill="#ADD378" cx="111.6835938" cy="52.8278809" rx="35.1921692" ry="45.1661758"/>
		
			<ellipse transform="matrix(0.9996195 -0.0275844 0.0275844 0.9996195 -1.4085617 3.1049271)" fill-rule="evenodd" clip-rule="evenodd" fill="#AED378" cx="111.8354492" cy="52.6064453" rx="34.9424973" ry="44.8461876"/>
		
			<ellipse transform="matrix(0.9995918 -0.0285706 0.0285706 0.9995918 -1.4509659 3.2209473)" fill-rule="evenodd" clip-rule="evenodd" fill="#AED379" cx="111.987793" cy="52.3852539" rx="34.6933632" ry="44.526474"/>
		
			<ellipse transform="matrix(0.9995629 -0.029564 0.029564 0.9995629 -1.4931564 3.338089)" fill-rule="evenodd" clip-rule="evenodd" fill="#AED47A" cx="112.1391602" cy="52.1638184" rx="34.4442558" ry="44.2065849"/>
		
			<ellipse transform="matrix(0.9995328 -0.0305647 0.0305647 0.9995328 -1.535141 3.4563942)" fill-rule="evenodd" clip-rule="evenodd" fill="#AFD47B" cx="112.2905273" cy="51.9421387" rx="34.1951752" ry="43.886467"/>
		
			<ellipse transform="matrix(0.999501 -0.0315882 0.0315882 0.999501 -1.577652 3.5776749)" fill-rule="evenodd" clip-rule="evenodd" fill="#AFD47B" cx="112.4428711" cy="51.7207031" rx="33.9451637" ry="43.5676155"/>
		
			<ellipse transform="matrix(0.9994679 -0.0326181 0.0326181 0.9994679 -1.6199036 3.7000275)" fill-rule="evenodd" clip-rule="evenodd" fill="#B0D47C" cx="112.5947266" cy="51.4995117" rx="33.69664" ry="43.2471161"/>
		
			<ellipse transform="matrix(0.9994327 -0.0336784 0.0336784 0.9994327 -1.663002 3.8261948)" fill-rule="evenodd" clip-rule="evenodd" fill="#B0D47D" cx="112.7460938" cy="51.277832" rx="33.4476852" ry="42.9276581"/>
		
			<ellipse transform="matrix(0.9993963 -0.0347409 0.0347409 0.9993963 -1.7055969 3.95298)" fill-rule="evenodd" clip-rule="evenodd" fill="#B1D57E" cx="112.8974609" cy="51.0566406" rx="33.1977768" ry="42.6072693"/>
		
			<ellipse transform="matrix(0.9993586 -0.0358105 0.0358105 0.9993586 -1.7479248 4.0809517)" fill-rule="evenodd" clip-rule="evenodd" fill="#B1D57E" cx="113.0493164" cy="50.8352051" rx="32.9493561" ry="42.2885895"/>
		
			<ellipse transform="matrix(0.9993182 -0.0369192 0.0369192 0.9993182 -1.7914505 4.2138176)" fill-rule="evenodd" clip-rule="evenodd" fill="#B2D57F" cx="113.2016602" cy="50.6140137" rx="32.7005157" ry="41.9683037"/>
		
			<ellipse transform="matrix(0.9992766 -0.0380304 0.0380304 0.9992766 -1.8344345 4.34729)" fill-rule="evenodd" clip-rule="evenodd" fill="#B2D580" cx="113.3525391" cy="50.392334" rx="32.45121" ry="41.6490288"/>
		
			<ellipse transform="matrix(0.9992327 -0.0391657 0.0391657 0.9992327 -1.8778687 4.4839897)" fill-rule="evenodd" clip-rule="evenodd" fill="#B2D681" cx="113.5048828" cy="50.1704102" rx="32.2024422" ry="41.3299904"/>
		
			<ellipse transform="matrix(0.9991869 -0.0403186 0.0403186 0.9991869 -1.9214783 4.6231194)" fill-rule="evenodd" clip-rule="evenodd" fill="#B3D681" cx="113.6572266" cy="49.9494629" rx="31.9537163" ry="41.0101051"/>
		
			<ellipse transform="matrix(0.9991395 -0.0414749 0.0414749 0.9991395 -1.9645386 4.7629662)" fill-rule="evenodd" clip-rule="evenodd" fill="#B3D682" cx="113.8081055" cy="49.7280273" rx="31.7045269" ry="40.6907883"/>
		
			<ellipse transform="matrix(0.9990892 -0.0426713 0.0426713 0.9990892 -2.0087051 4.9079094)" fill-rule="evenodd" clip-rule="evenodd" fill="#B4D683" cx="113.9599609" cy="49.5063477" rx="31.4563866" ry="40.3722191"/>
		
			<ellipse transform="matrix(0.9990371 -0.0438725 0.0438725 0.9990371 -2.0523911 5.0538216)" fill-rule="evenodd" clip-rule="evenodd" fill="#B4D683" cx="114.1118164" cy="49.2851563" rx="31.2072945" ry="40.0522003"/>
		
			<ellipse transform="matrix(0.9989828 -0.0450929 0.0450929 0.9989828 -2.096199 5.2023849)" fill-rule="evenodd" clip-rule="evenodd" fill="#B5D784" cx="114.2636719" cy="49.0639648" rx="30.9582481" ry="39.732811"/>
		
			<ellipse transform="matrix(0.9989253 -0.0463481 0.0463481 0.9989253 -2.1407928 5.3554115)" fill-rule="evenodd" clip-rule="evenodd" fill="#B5D785" cx="114.4150391" cy="48.8422852" rx="30.7097607" ry="39.4139099"/>
		
			<ellipse transform="matrix(0.9988661 -0.0476086 0.0476086 0.9988661 -2.1848679 5.5094986)" fill-rule="evenodd" clip-rule="evenodd" fill="#B5D785" cx="114.5668945" cy="48.6210938" rx="30.4608097" ry="39.0950928"/>
		
			<ellipse transform="matrix(0.9988039 -0.0488962 0.0488962 0.9988039 -2.229332 5.6671982)" fill-rule="evenodd" clip-rule="evenodd" fill="#B6D786" cx="114.71875" cy="48.3996582" rx="30.2128963" ry="38.7756042"/>
		
			<ellipse transform="matrix(0.9987388 -0.0502066 0.0502066 0.9987388 -2.2739944 5.8280258)" fill-rule="evenodd" clip-rule="evenodd" fill="#B6D787" cx="114.8706055" cy="48.1782227" rx="29.9640579" ry="38.4566727"/>
		
			<ellipse transform="matrix(0.9986718 -0.0515226 0.0515226 0.9986718 -2.3180847 5.9899445)" fill-rule="evenodd" clip-rule="evenodd" fill="#B7D888" cx="115.0224609" cy="47.9567871" rx="29.7152481" ry="38.1378059"/>
		
			<ellipse transform="matrix(0.9986007 -0.0528845 0.0528845 0.9986007 -2.3632889 6.1577148)" fill-rule="evenodd" clip-rule="evenodd" fill="#B7D888" cx="115.1738281" cy="47.7351074" rx="29.4670162" ry="37.8197136"/>
		
			<ellipse transform="matrix(0.9985277 -0.0542446 0.0542446 0.9985277 -2.4075623 6.3257179)" fill-rule="evenodd" clip-rule="evenodd" fill="#B8D889" cx="115.3251953" cy="47.5136719" rx="29.2187996" ry="37.500576"/>
		
			<ellipse transform="matrix(0.9984506 -0.0556446 0.0556446 0.9984506 -2.4526367 6.49897)" fill-rule="evenodd" clip-rule="evenodd" fill="#B8D88A" cx="115.4775391" cy="47.2922363" rx="28.9706669" ry="37.1818428"/>
		
			<ellipse transform="matrix(0.9983702 -0.0570687 0.0570687 0.9983702 -2.497818 6.6755028)" fill-rule="evenodd" clip-rule="evenodd" fill="#B9D98A" cx="115.6289063" cy="47.0708008" rx="28.7225914" ry="36.8632889"/>
		
			<ellipse transform="matrix(0.9982868 -0.0585099 0.0585099 0.9982868 -2.5428162 6.8545837)" fill-rule="evenodd" clip-rule="evenodd" fill="#B9D98B" cx="115.7807617" cy="46.8496094" rx="28.4740734" ry="36.5450249"/>
		
			<ellipse transform="matrix(0.9981994 -0.059983 0.059983 0.9981994 -2.58815 7.0379372)" fill-rule="evenodd" clip-rule="evenodd" fill="#B9D98C" cx="115.9326172" cy="46.6281738" rx="28.2266064" ry="36.2261124"/>
		
			<ellipse transform="matrix(0.9981081 -0.0614841 0.0614841 0.9981081 -2.6336517 7.2251434)" fill-rule="evenodd" clip-rule="evenodd" fill="#BAD98C" cx="116.0844727" cy="46.4067383" rx="27.9782257" ry="35.9077644"/>
		
			<ellipse transform="matrix(0.9980139 -0.0629944 0.0629944 0.9980139 -2.6785507 7.4139671)" fill-rule="evenodd" clip-rule="evenodd" fill="#BAD98D" cx="116.2363281" cy="46.1853027" rx="27.7298794" ry="35.5894394"/>
		
			<ellipse transform="matrix(0.9979146 -0.0645484 0.0645484 0.9979146 -2.7241745 7.60849)" fill-rule="evenodd" clip-rule="evenodd" fill="#BBDA8E" cx="116.3876953" cy="45.9638672" rx="27.4821167" ry="35.2717743"/>
		
			<ellipse transform="matrix(0.9978103 -0.0661406 0.0661406 0.9978103 -2.770256 7.8081589)" fill-rule="evenodd" clip-rule="evenodd" fill="#BBDA8E" cx="116.5395508" cy="45.7426758" rx="27.2339497" ry="34.9529495"/>
		
			<ellipse transform="matrix(0.9977023 -0.0677505 0.0677505 0.9977023 -2.8159637 8.0104942)" fill-rule="evenodd" clip-rule="evenodd" fill="#BCDA8F" cx="116.6914063" cy="45.5212402" rx="26.9868126" ry="34.6349449"/>
		
			<ellipse transform="matrix(0.9975901 -0.0693834 0.0693834 0.9975901 -2.8614502 8.2161484)" fill-rule="evenodd" clip-rule="evenodd" fill="#BCDA90" cx="116.8432617" cy="45.2995605" rx="26.7387543" ry="34.3172722"/>
		
			<ellipse transform="matrix(0.9974731 -0.0710453 0.0710453 0.9974731 -2.9069672 8.4258308)" fill-rule="evenodd" clip-rule="evenodd" fill="#BCDA90" cx="116.9946289" cy="45.0783691" rx="26.4912586" ry="33.999733"/>
		
			<ellipse transform="matrix(0.9973511 -0.0727384 0.0727384 0.9973511 -2.9524918 8.6398392)" fill-rule="evenodd" clip-rule="evenodd" fill="#BDDB91" cx="117.1459961" cy="44.8566895" rx="26.2438354" ry="33.6818047"/>
		
			<ellipse transform="matrix(0.997223 -0.0744743 0.0744743 0.997223 -2.998436 8.8596268)" fill-rule="evenodd" clip-rule="evenodd" fill="#BDDB92" cx="117.2978516" cy="44.6352539" rx="25.9960213" ry="33.3646698"/>
		
			<ellipse transform="matrix(0.9970901 -0.0762324 0.0762324 0.9970901 -3.0440292 9.082756)" fill-rule="evenodd" clip-rule="evenodd" fill="#BEDB93" cx="117.4501953" cy="44.4140625" rx="25.7487564" ry="33.0463066"/>
		
			<ellipse transform="matrix(0.9969507 -0.078034 0.078034 0.9969507 -3.08992 9.311676)" fill-rule="evenodd" clip-rule="evenodd" fill="#BEDB93" cx="117.6015625" cy="44.192627" rx="25.5015907" ry="32.7294197"/>
		
			<ellipse transform="matrix(0.9968051 -0.079872 0.079872 0.9968051 -3.1358643 9.5456848)" fill-rule="evenodd" clip-rule="evenodd" fill="#BFDC94" cx="117.753418" cy="43.9711914" rx="25.2540226" ry="32.4116249"/>
		
			<ellipse transform="matrix(0.9966532 -0.0817462 0.0817462 0.9966532 -3.1817703 9.784729)" fill-rule="evenodd" clip-rule="evenodd" fill="#BFDC95" cx="117.9052734" cy="43.7497559" rx="25.0065441" ry="32.0949173"/>
		
			<ellipse transform="matrix(0.9964965 -0.0836346 0.0836346 0.9964965 -3.22686 10.026165)" fill-rule="evenodd" clip-rule="evenodd" fill="#C0DC95" cx="118.0571289" cy="43.5283203" rx="24.7600861" ry="31.7773514"/>
		
			<ellipse transform="matrix(0.996331 -0.0855839 0.0855839 0.996331 -3.2726669 10.2756805)" fill-rule="evenodd" clip-rule="evenodd" fill="#C0DC96" cx="118.2089844" cy="43.3068848" rx="24.5127907" ry="31.4608746"/>
		
			<ellipse transform="matrix(0.9961592 -0.0875608 0.0875608 0.9961592 -3.3179779 10.529213)" fill-rule="evenodd" clip-rule="evenodd" fill="#C0DC97" cx="118.3603516" cy="43.0852051" rx="24.2660542" ry="31.1437511"/>
		
			<ellipse transform="matrix(0.9959789 -0.0895881 0.0895881 0.9959789 -3.363533 10.7895966)" fill-rule="evenodd" clip-rule="evenodd" fill="#C1DD97" cx="118.5117188" cy="42.8637695" rx="24.0194378" ry="30.8276558"/>
		
			<ellipse transform="matrix(0.9957916 -0.0916468 0.0916468 0.9957916 -3.4086685 11.0546455)" fill-rule="evenodd" clip-rule="evenodd" fill="#C1DD98" cx="118.6640625" cy="42.6425781" rx="23.7728977" ry="30.5106983"/>
		
			<ellipse transform="matrix(0.9955938 -0.0937708 0.0937708 0.9955938 -3.454361 11.3283825)" fill-rule="evenodd" clip-rule="evenodd" fill="#C2DD99" cx="118.815918" cy="42.4213867" rx="23.5260239" ry="30.1940041"/>
		
			<ellipse transform="matrix(0.9953893 -0.0959166 0.0959166 0.9953893 -3.4991379 11.6055107)" fill-rule="evenodd" clip-rule="evenodd" fill="#C2DD99" cx="118.9672852" cy="42.199707" rx="23.2796974" ry="29.8774967"/>
		
			<ellipse transform="matrix(0.9951745 -0.0981204 0.0981204 0.9951745 -3.5441208 11.8905849)" fill-rule="evenodd" clip-rule="evenodd" fill="#C3DE9A" cx="119.1191406" cy="41.9782715" rx="23.03302" ry="29.5617199"/>
		
			<ellipse transform="matrix(0.9949513 -0.1003587 0.1003587 0.9949513 -3.5885315 12.1806507)" fill-rule="evenodd" clip-rule="evenodd" fill="#C3DE9B" cx="119.2705078" cy="41.7570801" rx="22.7869186" ry="29.2456017"/>
		
			<ellipse transform="matrix(0.9947169 -0.102656 0.102656 0.9947169 -3.6329651 12.4789085)" fill-rule="evenodd" clip-rule="evenodd" fill="#C3DE9B" cx="119.4228516" cy="41.5356445" rx="22.5409603" ry="28.9295845"/>
		
			<ellipse transform="matrix(0.9944718 -0.1050034 0.1050034 0.9944718 -3.6771088 12.7840919)" fill-rule="evenodd" clip-rule="evenodd" fill="#C4DE9C" cx="119.5742188" cy="41.314209" rx="22.295126" ry="28.6135406"/>
		
			<ellipse transform="matrix(0.9942166 -0.107394 0.107394 0.9942166 -3.7207184 13.09552)" fill-rule="evenodd" clip-rule="evenodd" fill="#C4DE9D" cx="119.7260742" cy="41.0930176" rx="22.0489063" ry="28.29813"/>
		
			<ellipse transform="matrix(0.9939498 -0.1098354 0.1098354 0.9939498 -3.7638321 13.414072)" fill-rule="evenodd" clip-rule="evenodd" fill="#C5DF9E" cx="119.8774414" cy="40.8713379" rx="21.8033028" ry="27.9830475"/>
		
			<ellipse transform="matrix(0.9936692 -0.1123455 0.1123455 0.9936692 -3.8069534 13.7421036)" fill-rule="evenodd" clip-rule="evenodd" fill="#C5DF9E" cx="120.0292969" cy="40.6499023" rx="21.557373" ry="27.667841"/>
		
			<ellipse transform="matrix(0.9933772 -0.1148989 0.1148989 0.9933772 -3.8492203 14.0764847)" fill-rule="evenodd" clip-rule="evenodd" fill="#C6DF9F" cx="120.1816406" cy="40.4282227" rx="21.3120441" ry="27.3525143"/>
		
			<ellipse transform="matrix(0.9930702 -0.1175224 0.1175224 0.9930702 -3.8913193 14.4204407)" fill-rule="evenodd" clip-rule="evenodd" fill="#C6DFA0" cx="120.3330078" cy="40.2067871" rx="21.0668869" ry="27.0381012"/>
		
			<ellipse transform="matrix(0.9927503 -0.1201952 0.1201952 0.9927503 -3.9326019 14.7715225)" fill-rule="evenodd" clip-rule="evenodd" fill="#C7E0A0" cx="120.484375" cy="39.9855957" rx="20.8218498" ry="26.7232666"/>
		
			<ellipse transform="matrix(0.9924135 -0.1229453 0.1229453 0.9924135 -3.9736023 15.1333275)" fill-rule="evenodd" clip-rule="evenodd" fill="#C7E0A1" cx="120.6362305" cy="39.7641602" rx="20.5765152" ry="26.4088154"/>
		
			<ellipse transform="matrix(0.992061 -0.1257578 0.1257578 0.992061 -4.013855 15.5040302)" fill-rule="evenodd" clip-rule="evenodd" fill="#C7E0A2" cx="120.7885742" cy="39.5427246" rx="20.3318253" ry="26.0940266"/>
		
			<ellipse transform="matrix(0.9916947 -0.1286138 0.1286138 0.9916947 -4.0528183 15.8811188)" fill-rule="evenodd" clip-rule="evenodd" fill="#C8E0A3" cx="120.9399414" cy="39.3212891" rx="20.0872402" ry="25.7805424"/>
		
			<ellipse transform="matrix(0.9913073 -0.1315665 0.1315665 0.9913073 -4.0916214 16.2715054)" fill-rule="evenodd" clip-rule="evenodd" fill="#C8E1A3" cx="121.0917969" cy="39.0998535" rx="19.8424053" ry="25.4667377"/>
		
			<ellipse transform="matrix(0.9908999 -0.1346007 0.1346007 0.9908999 -4.1297684 16.6732063)" fill-rule="evenodd" clip-rule="evenodd" fill="#C9E1A4" cx="121.2431641" cy="38.8786621" rx="19.5982666" ry="25.1529846"/>
		
			<ellipse transform="matrix(0.990476 -0.1376852 0.1376852 0.990476 -4.1663971 17.0825405)" fill-rule="evenodd" clip-rule="evenodd" fill="#C9E1A5" cx="121.3955078" cy="38.6574707" rx="19.3542519" ry="24.8393402"/>
		
			<ellipse transform="matrix(0.9900314 -0.1408472 0.1408472 0.9900314 -4.2019196 17.5026894)" fill-rule="evenodd" clip-rule="evenodd" fill="#CAE1A6" cx="121.546875" cy="38.435791" rx="19.1104279" ry="24.5265617"/>
		
			<ellipse transform="matrix(0.9895623 -0.1441057 0.1441057 0.9895623 -4.2366486 17.9363575)" fill-rule="evenodd" clip-rule="evenodd" fill="#CAE1A6" cx="121.6987305" cy="38.2143555" rx="18.8663559" ry="24.2135925"/>
		
			<ellipse transform="matrix(0.9890704 -0.1474442 0.1474442 0.9890704 -4.2700577 18.3813381)" fill-rule="evenodd" clip-rule="evenodd" fill="#CBE2A7" cx="121.8500977" cy="37.9929199" rx="18.6229763" ry="23.9011002"/>
		
			<ellipse transform="matrix(0.9885551 -0.1508602 0.1508602 0.9885551 -4.3018799 18.837534)" fill-rule="evenodd" clip-rule="evenodd" fill="#CBE2A8" cx="122.0019531" cy="37.7712402" rx="18.3792934" ry="23.589056"/>
		
			<ellipse transform="matrix(0.988015 -0.154358 0.154358 0.988015 -4.3321381 19.3054543)" fill-rule="evenodd" clip-rule="evenodd" fill="#CBE2A8" cx="122.1538086" cy="37.5500488" rx="18.1368027" ry="23.2768211"/>
		
			<ellipse transform="matrix(0.9874439 -0.1579703 0.1579703 0.9874439 -4.3611221 19.7893639)" fill-rule="evenodd" clip-rule="evenodd" fill="#CCE2A9" cx="122.3056641" cy="37.3286133" rx="17.8936195" ry="22.9651299"/>
		
			<ellipse transform="matrix(0.986844 -0.1616754 0.1616754 0.986844 -4.3882751 20.2864761)" fill-rule="evenodd" clip-rule="evenodd" fill="#CCE3AA" cx="122.4570313" cy="37.1071777" rx="17.651165" ry="22.6538315"/>
		
			<ellipse transform="matrix(0.9862121 -0.1654859 0.1654859 0.9862121 -4.413559 20.798624)" fill-rule="evenodd" clip-rule="evenodd" fill="#CDE3AB" cx="122.6088867" cy="36.8857422" rx="17.4084835" ry="22.3426208"/>
		
			<ellipse transform="matrix(0.9855527 -0.1693692 0.1693692 0.9855527 -4.4362335 21.3216724)" fill-rule="evenodd" clip-rule="evenodd" fill="#CDE3AB" cx="122.7612305" cy="36.6643066" rx="17.1664677" ry="22.0318279"/>
		
			<ellipse transform="matrix(0.9848534 -0.1733887 0.1733887 0.9848534 -4.457077 21.8636379)" fill-rule="evenodd" clip-rule="evenodd" fill="#CEE3AC" cx="122.9125977" cy="36.4428711" rx="16.9248085" ry="21.7220383"/>
		
			<ellipse transform="matrix(0.984116 -0.1775266 0.1775266 0.984116 -4.4755173 22.4225597)" fill-rule="evenodd" clip-rule="evenodd" fill="#CEE4AD" cx="123.0644531" cy="36.2214355" rx="16.6829605" ry="21.4120522"/>
		
			<ellipse transform="matrix(0.983345 -0.1817489 0.1817489 0.983345 -4.490799 22.993927)" fill-rule="evenodd" clip-rule="evenodd" fill="#CEE4AE" cx="123.2158203" cy="36" rx="16.4418068" ry="21.102066"/>
		
			<ellipse transform="matrix(0.9825265 -0.1861225 0.1861225 0.9825265 -4.5035248 23.5867634)" fill-rule="evenodd" clip-rule="evenodd" fill="#CFE4AE" cx="123.3681641" cy="35.7785645" rx="16.2010574" ry="20.7926044"/>
		
			<ellipse transform="matrix(0.9816631 -0.190624 0.190624 0.9816631 -4.5130768 24.1977959)" fill-rule="evenodd" clip-rule="evenodd" fill="#CFE4AF" cx="123.5195313" cy="35.5571289" rx="15.9606371" ry="20.4845924"/>
		
			<ellipse transform="matrix(0.9807488 -0.1952739 0.1952739 0.9807488 -4.5193787 24.8299541)" fill-rule="evenodd" clip-rule="evenodd" fill="#D0E4B0" cx="123.6708984" cy="35.3359375" rx="15.7206097" ry="20.1759338"/>
		
			<ellipse transform="matrix(0.9797879 -0.2000391 0.2000391 0.9797879 -4.5215149 25.4791241)" fill-rule="evenodd" clip-rule="evenodd" fill="#D0E5B1" cx="123.8227539" cy="35.1142578" rx="15.4803715" ry="19.8678341"/>
		
			<ellipse transform="matrix(0.9787725 -0.2049495 0.2049495 0.9787725 -4.5196533 26.149229)" fill-rule="evenodd" clip-rule="evenodd" fill="#D1E5B1" cx="123.9746094" cy="34.8930664" rx="15.24051" ry="19.5602188"/>
		
			<ellipse transform="matrix(0.9776984 -0.2100136 0.2100136 0.9776984 -4.5133057 26.8414783)" fill-rule="evenodd" clip-rule="evenodd" fill="#D1E5B2" cx="124.1264648" cy="34.6716309" rx="15.0020494" ry="19.25383"/>
		
			<ellipse transform="matrix(0.9765592 -0.2152492 0.2152492 0.9765592 -4.5021973 27.5583458)" fill-rule="evenodd" clip-rule="evenodd" fill="#D1E5B3" cx="124.2783203" cy="34.4501953" rx="14.763051" ry="18.9474945"/>
		
			<ellipse transform="matrix(0.9753566 -0.2206344 0.2206344 0.9753566 -4.4857178 28.2970963)" fill-rule="evenodd" clip-rule="evenodd" fill="#D2E6B4" cx="124.4301758" cy="34.2290039" rx="14.524436" ry="18.6410065"/>
		
			<ellipse transform="matrix(0.9740844 -0.2261847 0.2261847 0.9740844 -4.4633331 29.0597572)" fill-rule="evenodd" clip-rule="evenodd" fill="#D2E6B4" cx="124.581543" cy="34.0073242" rx="14.2867537" ry="18.3359489"/>
		
			<ellipse transform="matrix(0.9727321 -0.2319314 0.2319314 0.9727321 -4.4347839 29.8509731)" fill-rule="evenodd" clip-rule="evenodd" fill="#D3E6B5" cx="124.7338867" cy="33.7858887" rx="14.0496063" ry="18.0317383"/>
		
			<ellipse transform="matrix(0.9712999 -0.2378582 0.2378582 0.9712999 -4.3994293 30.6681747)" fill-rule="evenodd" clip-rule="evenodd" fill="#D3E6B6" cx="124.8847656" cy="33.5646973" rx="13.8124332" ry="17.727808"/>
		
			<ellipse transform="matrix(0.9697797 -0.2439824 0.2439824 0.9697797 -4.3563995 31.5143642)" fill-rule="evenodd" clip-rule="evenodd" fill="#D4E7B7" cx="125.0366211" cy="33.3427734" rx="13.5767994" ry="17.4245701"/>
		
			<ellipse transform="matrix(0.968165 -0.250313 0.250313 0.968165 -4.3053894 32.3907394)" fill-rule="evenodd" clip-rule="evenodd" fill="#D4E7B7" cx="125.1884766" cy="33.121582" rx="13.3407173" ry="17.1218166"/>
		
			<ellipse transform="matrix(0.9664464 -0.2568683 0.2568683 0.9664464 -4.2454071 33.2997513)" fill-rule="evenodd" clip-rule="evenodd" fill="#D5E7B8" cx="125.3398438" cy="32.9001465" rx="13.1057606" ry="16.8206558"/>
		
			<ellipse transform="matrix(0.9646183 -0.2636502 0.2636502 0.9646183 -4.1756287 34.2422676)" fill-rule="evenodd" clip-rule="evenodd" fill="#D5E7B9" cx="125.4921875" cy="32.6787109" rx="12.8714285" ry="16.5195694"/>
		
			<ellipse transform="matrix(0.9626746 -0.2706617 0.2706617 0.9626746 -4.0952911 35.2185135)" fill-rule="evenodd" clip-rule="evenodd" fill="#D5E8BA" cx="125.644043" cy="32.4575195" rx="12.6372175" ry="16.2184849"/>
		
			<ellipse transform="matrix(0.9606013 -0.27793 0.27793 0.9606013 -4.003067 36.2323608)" fill-rule="evenodd" clip-rule="evenodd" fill="#D6E8BA" cx="125.7954102" cy="32.2355957" rx="12.4042387" ry="15.920331"/>
		
			<ellipse transform="matrix(0.958393 -0.2854519 0.2854519 0.958393 -3.8982849 37.283905)" fill-rule="evenodd" clip-rule="evenodd" fill="#D6E8BB" cx="125.9472656" cy="32.0144043" rx="12.1714563" ry="15.6218128"/>
		
			<ellipse transform="matrix(0.9560377 -0.2932438 0.2932438 0.9560377 -3.7796173 38.3754959)" fill-rule="evenodd" clip-rule="evenodd" fill="#D7E8BC" cx="126.0991211" cy="31.793457" rx="11.9404573" ry="15.3240614"/>
		
			<ellipse transform="matrix(0.9535051 -0.3013768 0.3013768 0.9535051 -3.6450043 39.5168991)" fill-rule="evenodd" clip-rule="evenodd" fill="#D7E9BD" cx="126.2504883" cy="31.5717773" rx="11.7089577" ry="15.0277491"/>
		
			<ellipse transform="matrix(0.9508282 -0.3097188 0.3097188 0.9508282 -3.4943542 40.6907425)" fill-rule="evenodd" clip-rule="evenodd" fill="#D8E9BD" cx="126.4023438" cy="31.3503418" rx="11.4795074" ry="14.7331142"/>
		
			<ellipse transform="matrix(0.9479429 -0.3184404 0.3184404 0.9479429 -3.324646 41.9204559)" fill-rule="evenodd" clip-rule="evenodd" fill="#D8E9BE" cx="126.5541992" cy="31.1289063" rx="11.2502041" ry="14.4388924"/>
		
			<ellipse transform="matrix(0.9448575 -0.3274818 0.3274818 0.9448575 -3.1347656 43.1980782)" fill-rule="evenodd" clip-rule="evenodd" fill="#D8E9BF" cx="126.7055664" cy="30.9074707" rx="11.0223513" ry="14.1467171"/>
		
			<ellipse transform="matrix(0.9415596 -0.3368464 0.3368464 0.9415596 -2.9228821 44.5247688)" fill-rule="evenodd" clip-rule="evenodd" fill="#D9E9C0" cx="126.8574219" cy="30.6860352" rx="10.7949219" ry="13.8549595"/>
		
			<ellipse transform="matrix(0.9380099 -0.3466086 0.3466086 0.9380099 -2.6858826 45.9109993)" fill-rule="evenodd" clip-rule="evenodd" fill="#D9EAC1" cx="127.0092773" cy="30.4643555" rx="10.5697727" ry="13.5654449"/>
		
			<ellipse transform="matrix(0.9342018 -0.356745 0.356745 0.9342018 -2.4221191 47.3540421)" fill-rule="evenodd" clip-rule="evenodd" fill="#DAEAC1" cx="127.1611328" cy="30.2431641" rx="10.3447266" ry="13.276866"/>
	</g>
	<g>
		<path fill="#6E6F71" d="M108.6933594,304.6914063c-0.1972656-0.0039063-0.3955078-0.0566406-0.5771484-0.1660156
			c-0.5605469-0.34375-0.2099609-0.6064453,0.1220703-1.1855469c8.2646484-14.3554688,2.9814453-23.5888672-2.5166016-33.7177734
			c-2.6708984-4.9189453-5.4335938-10.0087891-7-16.1484375c-4.8632813-19.0595703-0.9628906-29.6357422,9.4150391-54.84375
			c15.9199219-38.6787109-5.2539063-56.6865234-6.1552734-57.4272461c-0.5078125-0.4194336-1.0800781-0.9790039-0.6748047-1.5048828
			c0.4072266-0.5268555,0.78125-0.1865234,1.2939453,0.2314453c0.234375,0.1923828,23.6630859,19.2495117,7.0087891,59.706543
			c-10.1435547,24.6416016-13.8603516,35.3730469-9.1884766,53.6894531
			c1.4921875,5.84375,4.2363281,10.5996094,6.8359375,15.3828125c5.6113281,10.3408203,10.7734375,18.6503906,2.0849609,35.1943359
			C109.1328125,304.3066406,109.1054688,304.7001953,108.6933594,304.6914063L108.6933594,304.6914063z"/>
	</g>
	<path fill-rule="evenodd" clip-rule="evenodd" fill="#8BC540" d="M98.4384766,137.53125
		c0,0,3.4619141,2.7353516,4.6972656,4.6762695c1.2363281,1.9404297,1.1787109,4.8037109,1.1787109,4.8037109
		c-0.4287109,0.3745117-1.0615234,0.0219727-2.0126953,0.1943359c-0.9511719,0.1713867-2.21875,0.8671875-3.3408203,0.84375
		c-1.1220703-0.0239258-1.6435547-0.6655273-2.5849609-0.8774414c-0.9423828-0.2109375-2.3066406,0.0078125-2.71875-0.3837891
		l1.3613281-2.2539063c0,0,0.3925781-0.8393555,0.7324219-2.390625c0.3417969-1.5507813,1.1787109-2.3618164,1.1787109-2.3618164
		l1.3623047-2.253418l0.0361328,0.0009766l0.0361328,0.0004883l0.0371094,0.0009766L98.4384766,137.53125z"/>
	<g>
		
			<linearGradient id="SVGID_1_" gradientUnits="userSpaceOnUse" x1="19.1523438" y1="10.2460938" x2="25.4316406" y2="10.2460938" gradientTransform="matrix(-0.9998 -0.021 0.021 -0.9998 121.2018509 150.7852783)">
			<stop  offset="0" style="stop-color:#6E6F71"/>
			<stop  offset="1" style="stop-color:#414142"/>
		</linearGradient>
		<path fill="url(#SVGID_1_)" d="M96.3544922,139.315918l5.5966797,0.1171875
			c0.3310547,0.0068359,0.3242188,0.3193359,0.3164063,0.7041016c-0.0087891,0.3847656-0.0146484,0.6967773-0.3457031,0.6899414
			l-5.5966797-0.1176758c-0.3300781-0.0068359-0.34375-0.3193359-0.3359375-0.7036133
			C95.9980469,139.6210938,96.0244141,139.309082,96.3544922,139.315918L96.3544922,139.315918z"/>
	</g>
</g>
</svg>
