<?xml version="1.0" encoding="utf-8"?>
<!-- Generator: Adobe Illustrator 16.0.0, SVG Export Plug-In . SVG Version: 6.00 Build 0)  -->
<!DOCTYPE svg PUBLIC "-//W3C//DTD SVG 1.1//EN" "http://www.w3.org/Graphics/SVG/1.1/DTD/svg11.dtd">
<svg version="1.1" id="Layer_1" xmlns="http://www.w3.org/2000/svg" xmlns:xlink="http://www.w3.org/1999/xlink" x="0px" y="0px"
	 width="200px" height="304.6865234px" viewBox="0 0 200 304.6865234" enable-background="new 0 0 200 304.6865234"
	 xml:space="preserve">
<g>
	<g>
		
			<ellipse transform="matrix(0.9997804 0.0209558 -0.0209558 0.9997804 1.4861603 -2.0774536)" fill-rule="evenodd" clip-rule="evenodd" fill="#EF4036" cx="99.8671875" cy="69.8725586" rx="54.4533653" ry="69.8869476"/>
		
			<ellipse transform="matrix(0.9997888 0.0205528 -0.0205528 0.9997888 1.452652 -2.0409546)" fill-rule="evenodd" clip-rule="evenodd" fill="#EF4137" cx="100.0187988" cy="69.651123" rx="54.20261" ry="69.5647583"/>
		
			<ellipse transform="matrix(0.9997969 0.0201549 -0.0201549 0.9997969 1.4197006 -2.004837)" fill-rule="evenodd" clip-rule="evenodd" fill="#EF4237" cx="100.1711426" cy="69.4296875" rx="53.9521217" ry="69.243576"/>
		
			<ellipse transform="matrix(0.9998052 0.01974 -0.01974 0.9998052 1.3857117 -1.9668655)" fill-rule="evenodd" clip-rule="evenodd" fill="#EF4338" cx="100.3220215" cy="69.2080078" rx="53.7011375" ry="68.9216461"/>
		
			<ellipse transform="matrix(0.9998133 0.0193255 -0.0193255 0.9998133 1.3519592 -1.9288254)" fill-rule="evenodd" clip-rule="evenodd" fill="#EF4438" cx="100.4743652" cy="68.9865723" rx="53.4506531" ry="68.6004791"/>
		
			<ellipse transform="matrix(0.9998211 0.0189162 -0.0189162 0.9998211 1.3187866 -1.8911514)" fill-rule="evenodd" clip-rule="evenodd" fill="#EF4539" cx="100.6257324" cy="68.7651367" rx="53.2001915" ry="68.2788239"/>
		
			<ellipse transform="matrix(0.9998291 0.0184894 -0.0184894 0.9998291 1.2845612 -1.851593)" fill-rule="evenodd" clip-rule="evenodd" fill="#EF4639" cx="100.7773438" cy="68.5439453" rx="52.949482" ry="67.956459"/>
		
			<ellipse transform="matrix(0.9998367 0.0180677 -0.0180677 0.9998367 1.2509155 -1.8124084)" fill-rule="evenodd" clip-rule="evenodd" fill="#EF473A" cx="100.9296875" cy="68.3227539" rx="52.6990318" ry="67.6350784"/>
		
			<ellipse transform="matrix(0.9998444 0.0176373 -0.0176373 0.9998444 1.2168427 -1.7722092)" fill-rule="evenodd" clip-rule="evenodd" fill="#EF483B" cx="101.0812988" cy="68.1008301" rx="52.4483452" ry="67.3139572"/>
		
			<ellipse transform="matrix(0.9998519 0.0172075 -0.0172075 0.9998519 1.1830368 -1.7319183)" fill-rule="evenodd" clip-rule="evenodd" fill="#EF493B" cx="101.2329102" cy="67.8796387" rx="52.19767" ry="66.9916153"/>
		
			<ellipse transform="matrix(0.9998594 0.0167689 -0.0167689 0.9998594 1.1488037 -1.6905899)" fill-rule="evenodd" clip-rule="evenodd" fill="#EF4A3C" cx="101.3845215" cy="67.6582031" rx="51.9470024" ry="66.6705246"/>
		
			<ellipse transform="matrix(0.9998667 0.0163306 -0.0163306 0.9998667 1.11483 -1.6491699)" fill-rule="evenodd" clip-rule="evenodd" fill="#F04B3C" cx="101.5368652" cy="67.4370117" rx="51.6965904" ry="66.3487091"/>
		
			<ellipse transform="matrix(0.9998739 0.0158786 -0.0158786 0.9998739 1.080101 -1.6061935)" fill-rule="evenodd" clip-rule="evenodd" fill="#F04C3D" cx="101.6882324" cy="67.215332" rx="51.4461823" ry="66.0273895"/>
		
			<ellipse transform="matrix(0.9998809 0.0154365 -0.0154365 0.9998809 1.0462799 -1.564064)" fill-rule="evenodd" clip-rule="evenodd" fill="#F04D3D" cx="101.8395996" cy="66.9938965" rx="51.195797" ry="65.7058334"/>
		
			<ellipse transform="matrix(0.9998879 0.0149758 -0.0149758 0.9998879 1.0114059 -1.5199127)" fill-rule="evenodd" clip-rule="evenodd" fill="#F04E3E" cx="101.9914551" cy="66.7727051" rx="50.9449196" ry="65.3835602"/>
		
			<ellipse transform="matrix(0.9998946 0.01452 -0.01452 0.9998946 0.9770966 -1.4761047)" fill-rule="evenodd" clip-rule="evenodd" fill="#F04F3F" cx="102.1437988" cy="66.5515137" rx="50.6945534" ry="65.0622864"/>
		
			<ellipse transform="matrix(0.9999012 0.0140597 -0.0140597 0.9999012 0.9426804 -1.431694)" fill-rule="evenodd" clip-rule="evenodd" fill="#F0503F" cx="102.2954102" cy="66.3293457" rx="50.4439507" ry="64.7415085"/>
		
			<ellipse transform="matrix(0.9999076 0.0135948 -0.0135948 0.9999076 0.9081955 -1.3866348)" fill-rule="evenodd" clip-rule="evenodd" fill="#F05040" cx="102.4467773" cy="66.1081543" rx="50.1936035" ry="64.4192886"/>
		
			<ellipse transform="matrix(0.9999139 0.0131204 -0.0131204 0.9999139 0.873291 -1.3404617)" fill-rule="evenodd" clip-rule="evenodd" fill="#F05140" cx="102.5983887" cy="65.8867188" rx="49.9430199" ry="64.0982971"/>
		
			<ellipse transform="matrix(0.99992 0.0126462 -0.0126462 0.99992 0.8386383 -1.2941513)" fill-rule="evenodd" clip-rule="evenodd" fill="#F05241" cx="102.7502441" cy="65.6655273" rx="49.6922073" ry="63.7765884"/>
		
			<ellipse transform="matrix(0.999926 0.0121621 -0.0121621 0.999926 0.8035507 -1.2466583)" fill-rule="evenodd" clip-rule="evenodd" fill="#F05341" cx="102.9016113" cy="65.4440918" rx="49.4418907" ry="63.4551315"/>
		
			<ellipse transform="matrix(0.9999318 0.0116781 -0.0116781 0.9999318 0.7686996 -1.1990204)" fill-rule="evenodd" clip-rule="evenodd" fill="#F05442" cx="103.0532227" cy="65.2224121" rx="49.1913452" ry="63.1339493"/>
		
			<ellipse transform="matrix(0.9999375 0.0111791 -0.0111791 0.9999375 0.7331085 -1.1496887)" fill-rule="evenodd" clip-rule="evenodd" fill="#F05543" cx="103.2055664" cy="65.0012207" rx="48.9410477" ry="62.8122787"/>
		
			<ellipse transform="matrix(0.9999429 0.0106851 -0.0106851 0.9999429 0.698082 -1.1006851)" fill-rule="evenodd" clip-rule="evenodd" fill="#F05643" cx="103.3579102" cy="64.7800293" rx="48.6907692" ry="62.4906349"/>
		
			<ellipse transform="matrix(0.9999481 0.0101859 -0.0101859 0.9999481 0.6629562 -1.0509796)" fill-rule="evenodd" clip-rule="evenodd" fill="#F05744" cx="103.5092773" cy="64.5583496" rx="48.4405022" ry="62.1694946"/>
		
			<ellipse transform="matrix(0.9999532 0.0096764 -0.0096764 0.9999532 0.6274033 -1.0000458)" fill-rule="evenodd" clip-rule="evenodd" fill="#F15744" cx="103.6606445" cy="64.3369141" rx="48.1902466" ry="61.8476295"/>
		
			<ellipse transform="matrix(0.999958 0.0091617 -0.0091617 0.999958 0.5917664 -0.94841)" fill-rule="evenodd" clip-rule="evenodd" fill="#F15845" cx="103.8125" cy="64.1154785" rx="47.9395103" ry="61.5267601"/>
		
			<ellipse transform="matrix(0.9999626 0.0086467 -0.0086467 0.9999626 0.5563583 -0.8965607)" fill-rule="evenodd" clip-rule="evenodd" fill="#F15946" cx="103.9648438" cy="63.8942871" rx="47.6892815" ry="61.2056656"/>
		
			<ellipse transform="matrix(0.999967 0.0081211 -0.0081211 0.999967 0.5205307 -0.8434372)" fill-rule="evenodd" clip-rule="evenodd" fill="#F15A46" cx="104.1157227" cy="63.6728516" rx="47.4385757" ry="60.8838463"/>
		
			<ellipse transform="matrix(0.9999712 0.0075951 -0.0075951 0.9999712 0.4849243 -0.7900925)" fill-rule="evenodd" clip-rule="evenodd" fill="#F15B47" cx="104.267334" cy="63.4511719" rx="47.1881294" ry="60.5627861"/>
		
			<ellipse transform="matrix(0.9999751 0.0070582 -0.0070582 0.9999751 0.4488907 -0.7354355)" fill-rule="evenodd" clip-rule="evenodd" fill="#F15C47" cx="104.4194336" cy="63.2297363" rx="46.9381828" ry="60.2414932"/>
		
			<ellipse transform="matrix(0.9999787 0.0065208 -0.0065208 0.9999787 0.4130936 -0.6805534)" fill-rule="evenodd" clip-rule="evenodd" fill="#F15C48" cx="104.5710449" cy="63.0085449" rx="46.6877632" ry="59.9204597"/>
		
			<ellipse transform="matrix(0.9999822 0.0059724 -0.0059724 0.9999822 0.3768616 -0.6243324)" fill-rule="evenodd" clip-rule="evenodd" fill="#F15D49" cx="104.7226563" cy="62.7871094" rx="46.4373512" ry="59.5987206"/>
		
			<ellipse transform="matrix(0.9999853 0.0054181 -0.0054181 0.9999853 0.3405228 -0.5672989)" fill-rule="evenodd" clip-rule="evenodd" fill="#F15E49" cx="104.8742676" cy="62.5656738" rx="46.1869583" ry="59.2769928"/>
		
			<ellipse transform="matrix(0.9999882 0.0048576 -0.0048576 0.9999882 0.3040771 -0.5094414)" fill-rule="evenodd" clip-rule="evenodd" fill="#F15F4A" cx="105.0263672" cy="62.3442383" rx="45.9370651" ry="58.9562645"/>
		
			<ellipse transform="matrix(0.9999908 0.0042964 -0.0042964 0.9999908 0.2678757 -0.4513206)" fill-rule="evenodd" clip-rule="evenodd" fill="#F1604B" cx="105.1782227" cy="62.1230469" rx="45.6864586" ry="58.6353073"/>
		
			<ellipse transform="matrix(0.999993 0.0037291 -0.0037291 0.999993 0.2315674 -0.3923492)" fill-rule="evenodd" clip-rule="evenodd" fill="#F1604B" cx="105.329834" cy="61.9013672" rx="45.4361076" ry="58.3138847"/>
		
			<ellipse transform="matrix(0.999995 0.0031554 -0.0031554 0.999995 0.1951447 -0.3325233)" fill-rule="evenodd" clip-rule="evenodd" fill="#F1614C" cx="105.4812012" cy="61.6796875" rx="45.1860161" ry="57.9929657"/>
		
			<ellipse transform="matrix(0.9999967 0.0025698 -0.0025698 0.9999967 0.1582794 -0.2712593)" fill-rule="evenodd" clip-rule="evenodd" fill="#F1624C" cx="105.6333008" cy="61.458252" rx="44.9361839" ry="57.6718216"/>
		
			<ellipse transform="matrix(0.999998 0.0019778 -0.0019778 0.999998 0.1213226 -0.2090988)" fill-rule="evenodd" clip-rule="evenodd" fill="#F1634D" cx="105.7851563" cy="61.2373047" rx="44.6856346" ry="57.3506966"/>
		
			<ellipse transform="matrix(0.999999 0.0013846 -0.0013846 0.999999 0.0845795 -0.1466179)" fill-rule="evenodd" clip-rule="evenodd" fill="#F1644E" cx="105.9367676" cy="61.015625" rx="44.4353447" ry="57.0293541"/>
		
			<ellipse transform="matrix(0.9999997 0.0007791 -0.0007791 0.9999997 0.0473938 -0.082634)" fill-rule="evenodd" clip-rule="evenodd" fill="#F1644E" cx="106.0883789" cy="60.7941895" rx="44.1850739" ry="56.7077827"/>
		
			<ellipse transform="matrix(1 0.0001667 -0.0001667 1 0.0101013 -0.0177116)" fill-rule="evenodd" clip-rule="evenodd" fill="#F2654F" cx="106.2404785" cy="60.5727539" rx="43.9353027" ry="56.387207"/>
		
			<ellipse transform="matrix(0.9999999 -0.0004471 0.0004471 0.9999999 -0.0269699 0.0475769)" fill-rule="evenodd" clip-rule="evenodd" fill="#F26650" cx="106.392334" cy="60.3515625" rx="43.6848183" ry="56.0664101"/>
		
			<ellipse transform="matrix(0.9999994 -0.0010736 0.0010736 0.9999994 -0.0644913 0.114418)" fill-rule="evenodd" clip-rule="evenodd" fill="#F26750" cx="106.5437012" cy="60.130127" rx="43.4348412" ry="55.7449074"/>
		
			<ellipse transform="matrix(0.9999986 -0.0017017 0.0017017 0.9999986 -0.1017914 0.1816444)" fill-rule="evenodd" clip-rule="evenodd" fill="#F26751" cx="106.6953125" cy="59.9084473" rx="43.1846313" ry="55.4241524"/>
		
			<ellipse transform="matrix(0.9999973 -0.0023371 0.0023371 0.9999973 -0.1392059 0.2498741)" fill-rule="evenodd" clip-rule="evenodd" fill="#F26851" cx="106.8469238" cy="59.6867676" rx="42.9344406" ry="55.1034241"/>
		
			<ellipse transform="matrix(0.9999955 -0.0029971 0.0029971 0.9999955 -0.177742 0.3209534)" fill-rule="evenodd" clip-rule="evenodd" fill="#F26952" cx="106.9992676" cy="59.4658203" rx="42.6845169" ry="54.7824707"/>
		
			<ellipse transform="matrix(0.9999934 -0.0036361 0.0036361 0.9999934 -0.2147064 0.390007)" fill-rule="evenodd" clip-rule="evenodd" fill="#F26A53" cx="107.1508789" cy="59.2441406" rx="42.4343643" ry="54.4612961"/>
		
			<ellipse transform="matrix(0.9999907 -0.0043059 0.0043059 0.9999907 -0.2531433 0.4625778)" fill-rule="evenodd" clip-rule="evenodd" fill="#F26B53" cx="107.3022461" cy="59.0224609" rx="42.1844749" ry="54.1411247"/>
		
			<ellipse transform="matrix(0.9999877 -0.0049719 0.0049719 0.9999877 -0.2910233 0.534977)" fill-rule="evenodd" clip-rule="evenodd" fill="#F26B54" cx="107.4543457" cy="58.8012695" rx="41.934845" ry="53.8195076"/>
		
			<ellipse transform="matrix(0.9999841 -0.005646 0.005646 0.9999841 -0.3290329 0.6084709)" fill-rule="evenodd" clip-rule="evenodd" fill="#F26C55" cx="107.605957" cy="58.5800781" rx="41.6847458" ry="53.4989014"/>
		
			<ellipse transform="matrix(0.9999799 -0.0063341 0.0063341 0.9999799 -0.367485 0.6837234)" fill-rule="evenodd" clip-rule="evenodd" fill="#F26D55" cx="107.7578125" cy="58.3586426" rx="41.4344254" ry="53.1775742"/>
		
			<ellipse transform="matrix(0.9999753 -0.0070306 0.0070306 0.9999753 -0.4060669 0.7601013)" fill-rule="evenodd" clip-rule="evenodd" fill="#F26E56" cx="107.9091797" cy="58.137207" rx="41.1846123" ry="52.8567734"/>
		
			<ellipse transform="matrix(0.9999701 -0.0077356 0.0077356 0.9999701 -0.4447784 0.8376465)" fill-rule="evenodd" clip-rule="evenodd" fill="#F26E57" cx="108.0610352" cy="57.9157715" rx="40.93433" ry="52.5359917"/>
		
			<ellipse transform="matrix(0.9999644 -0.0084372 0.0084372 0.9999644 -0.4829254 0.9150658)" fill-rule="evenodd" clip-rule="evenodd" fill="#F26F57" cx="108.2133789" cy="57.6948242" rx="40.6845551" ry="52.2152328"/>
		
			<ellipse transform="matrix(0.999958 -0.0091595 0.0091595 0.999958 -0.5218735 0.994976)" fill-rule="evenodd" clip-rule="evenodd" fill="#F37058" cx="108.3647461" cy="57.4729004" rx="40.434803" ry="51.8945084"/>
		
			<ellipse transform="matrix(0.9999511 -0.0098908 0.0098908 0.9999511 -0.5609436 1.076107)" fill-rule="evenodd" clip-rule="evenodd" fill="#F37058" cx="108.5161133" cy="57.2509766" rx="40.18507" ry="51.5747795"/>
		
			<ellipse transform="matrix(0.9999435 -0.0106313 0.0106313 0.9999435 -0.6001663 1.1585083)" fill-rule="evenodd" clip-rule="evenodd" fill="#F37159" cx="108.6679688" cy="57.0300293" rx="39.9348755" ry="51.2536316"/>
		
			<ellipse transform="matrix(0.9999353 -0.0113751 0.0113751 0.9999353 -0.6391678 1.2415047)" fill-rule="evenodd" clip-rule="evenodd" fill="#F3725A" cx="108.8198242" cy="56.8088379" rx="39.6846962" ry="50.9327393"/>
		
			<ellipse transform="matrix(0.9999264 -0.0121341 0.0121341 0.9999264 -0.6786194 1.3264427)" fill-rule="evenodd" clip-rule="evenodd" fill="#F3735A" cx="108.9716797" cy="56.5874023" rx="39.4355202" ry="50.6116371"/>
		
			<ellipse transform="matrix(0.9999169 -0.0128968 0.0128968 0.9999169 -0.717865 1.4120331)" fill-rule="evenodd" clip-rule="evenodd" fill="#F3735B" cx="109.123291" cy="56.3657227" rx="39.1856308" ry="50.2912865"/>
		
			<ellipse transform="matrix(0.9999065 -0.0136756 0.0136756 0.9999065 -0.7575912 1.499649)" fill-rule="evenodd" clip-rule="evenodd" fill="#F3745B" cx="109.2749023" cy="56.1442871" rx="38.9357719" ry="49.9707336"/>
		
			<ellipse transform="matrix(0.9998956 -0.0144517 0.0144517 0.9998956 -0.7967606 1.5872536)" fill-rule="evenodd" clip-rule="evenodd" fill="#F3755C" cx="109.4272461" cy="55.9233398" rx="38.6861687" ry="49.6501999"/>
		
			<ellipse transform="matrix(0.9998836 -0.015257 0.015257 0.9998836 -0.8370819 1.6783218)" fill-rule="evenodd" clip-rule="evenodd" fill="#F3755D" cx="109.5786133" cy="55.7016602" rx="38.4366035" ry="49.3294525"/>
		
			<ellipse transform="matrix(0.999871 -0.0160599 0.0160599 0.999871 -0.8768463 1.769413)" fill-rule="evenodd" clip-rule="evenodd" fill="#F3765D" cx="109.7299805" cy="55.4794922" rx="38.1870537" ry="49.0102196"/>
		
			<ellipse transform="matrix(0.9998574 -0.0168865 0.0168865 0.9998574 -0.9174652 1.8633995)" fill-rule="evenodd" clip-rule="evenodd" fill="#F3775E" cx="109.8818359" cy="55.2587891" rx="37.9370499" ry="48.6890564"/>
		
			<ellipse transform="matrix(0.9998431 -0.0177111 0.0177111 0.9998431 -0.9575119 1.9574547)" fill-rule="evenodd" clip-rule="evenodd" fill="#F3775F" cx="110.0336914" cy="55.0375977" rx="37.6870651" ry="48.3684311"/>
		
			<ellipse transform="matrix(0.9998281 -0.0185399 0.0185399 0.9998281 -0.9973297 2.0522499)" fill-rule="evenodd" clip-rule="evenodd" fill="#F3785F" cx="110.185791" cy="54.8156738" rx="37.4378319" ry="48.0480423"/>
		
			<ellipse transform="matrix(0.9998119 -0.019393 0.019393 0.9998119 -1.0379944 2.1500244)" fill-rule="evenodd" clip-rule="evenodd" fill="#F37960" cx="110.3364258" cy="54.5942383" rx="37.1881485" ry="47.7277374"/>
		
			<ellipse transform="matrix(0.9997948 -0.0202576 0.0202576 0.9997948 -1.0787888 2.2493973)" fill-rule="evenodd" clip-rule="evenodd" fill="#F37A60" cx="110.4887695" cy="54.3728027" rx="36.9387321" ry="47.4074364"/>
		
			<ellipse transform="matrix(0.9997768 -0.0211276 0.0211276 0.9997768 -1.1194077 2.3496552)" fill-rule="evenodd" clip-rule="evenodd" fill="#F37A61" cx="110.640625" cy="54.1520996" rx="36.6888542" ry="47.0869331"/>
		
			<ellipse transform="matrix(0.9997576 -0.022016 0.022016 0.9997576 -1.1604767 2.4522705)" fill-rule="evenodd" clip-rule="evenodd" fill="#F47B62" cx="110.7922363" cy="53.9301758" rx="36.4392509" ry="46.766716"/>
		
			<ellipse transform="matrix(0.9997374 -0.0229166 0.0229166 0.9997374 -1.2016754 2.5565643)" fill-rule="evenodd" clip-rule="evenodd" fill="#F47C62" cx="110.9438477" cy="53.708252" rx="36.189682" ry="46.4474907"/>
		
			<ellipse transform="matrix(0.999716 -0.0238294 0.0238294 0.999716 -1.2430267 2.6625404)" fill-rule="evenodd" clip-rule="evenodd" fill="#F47C63" cx="111.0959473" cy="53.4873047" rx="35.9406281" ry="46.1268692"/>
		
			<ellipse transform="matrix(0.9996937 -0.0247487 0.0247487 0.9996937 -1.2841949 2.7695503)" fill-rule="evenodd" clip-rule="evenodd" fill="#F47D64" cx="111.2478027" cy="53.2661133" rx="35.6908646" ry="45.8064957"/>
		
			<ellipse transform="matrix(0.9996702 -0.0256799 0.0256799 0.9996702 -1.3254395 2.8782196)" fill-rule="evenodd" clip-rule="evenodd" fill="#F47E64" cx="111.3994141" cy="53.0444336" rx="35.4423523" ry="45.4866791"/>
		
			<ellipse transform="matrix(0.9996453 -0.0266325 0.0266325 0.9996453 -1.3672409 2.9896164)" fill-rule="evenodd" clip-rule="evenodd" fill="#F47E65" cx="111.5507813" cy="52.822998" rx="35.1921692" ry="45.1661758"/>
		
			<ellipse transform="matrix(0.9996191 -0.0275978 0.0275978 0.9996191 -1.4091415 3.1027832)" fill-rule="evenodd" clip-rule="evenodd" fill="#F47F65" cx="111.7028809" cy="52.6015625" rx="34.9432411" ry="44.84618"/>
		
			<ellipse transform="matrix(0.9995918 -0.0285704 0.0285704 0.9995918 -1.450882 3.2171211)" fill-rule="evenodd" clip-rule="evenodd" fill="#F48066" cx="111.8547363" cy="52.3808594" rx="34.6936073" ry="44.5259895"/>
		
			<ellipse transform="matrix(0.9995631 -0.0295569 0.0295569 0.9995631 -1.4927139 3.3333549)" fill-rule="evenodd" clip-rule="evenodd" fill="#F48067" cx="112.0063477" cy="52.1586914" rx="34.4442482" ry="44.2063141"/>
		
			<ellipse transform="matrix(0.9995326 -0.0305719 0.0305719 0.9995326 -1.5353928 3.4531479)" fill-rule="evenodd" clip-rule="evenodd" fill="#F48167" cx="112.1577148" cy="51.9370117" rx="34.1951828" ry="43.8871994"/>
		
			<ellipse transform="matrix(0.999501 -0.031587 0.031587 0.999501 -1.577507 3.5733414)" fill-rule="evenodd" clip-rule="evenodd" fill="#F48268" cx="112.3098145" cy="51.7158203" rx="33.9463844" ry="43.5671387"/>
		
			<ellipse transform="matrix(0.9994679 -0.0326176 0.0326176 0.9994679 -1.6197968 3.6956291)" fill-rule="evenodd" clip-rule="evenodd" fill="#F48269" cx="112.4614258" cy="51.4946289" rx="33.6971283" ry="43.2471313"/>
		
			<ellipse transform="matrix(0.999433 -0.0336711 0.0336711 0.999433 -1.6625748 3.8208885)" fill-rule="evenodd" clip-rule="evenodd" fill="#F48369" cx="112.6132813" cy="51.2731934" rx="33.4476776" ry="42.9274139"/>
		
			<ellipse transform="matrix(0.9993964 -0.0347399 0.0347399 0.9993964 -1.7054596 3.948246)" fill-rule="evenodd" clip-rule="evenodd" fill="#F4846A" cx="112.7646484" cy="51.0517578" rx="33.1987534" ry="42.6077576"/>
		
			<ellipse transform="matrix(0.9993584 -0.0358173 0.0358173 0.9993584 -1.7481689 4.0769997)" fill-rule="evenodd" clip-rule="evenodd" fill="#F4846B" cx="112.9169922" cy="50.8305664" rx="32.949852" ry="42.2873878"/>
		
			<ellipse transform="matrix(0.9993185 -0.0369117 0.0369117 0.9993185 -1.7910309 4.2080536)" fill-rule="evenodd" clip-rule="evenodd" fill="#F5856B" cx="113.0688477" cy="50.609375" rx="32.7005081" ry="41.9680595"/>
		
			<ellipse transform="matrix(0.9992766 -0.0380298 0.0380298 0.9992766 -1.8343124 4.3421936)" fill-rule="evenodd" clip-rule="evenodd" fill="#F5866C" cx="113.2202148" cy="50.3874512" rx="32.4516983" ry="41.6490479"/>
		
			<ellipse transform="matrix(0.9992331 -0.0391575 0.0391575 0.9992331 -1.8774109 4.4778252)" fill-rule="evenodd" clip-rule="evenodd" fill="#F5866D" cx="113.371582" cy="50.1657715" rx="32.202919" ry="41.3298035"/>
		
			<ellipse transform="matrix(0.9991872 -0.040311 0.040311 0.9991872 -1.9210281 4.6168404)" fill-rule="evenodd" clip-rule="evenodd" fill="#F5876D" cx="113.5234375" cy="49.9443359" rx="31.9537067" ry="41.0103912"/>
		
			<ellipse transform="matrix(0.9991392 -0.0414816 0.0414816 0.9991392 -1.9647598 4.7582474)" fill-rule="evenodd" clip-rule="evenodd" fill="#F5886E" cx="113.6755371" cy="49.7233887" rx="31.7052689" ry="40.6905327"/>
		
			<ellipse transform="matrix(0.9990895 -0.0426636 0.0426636 0.9990895 -2.0082703 4.9013443)" fill-rule="evenodd" clip-rule="evenodd" fill="#F5886E" cx="113.8271484" cy="49.501709" rx="31.456377" ry="40.3714867"/>
		
			<ellipse transform="matrix(0.9990371 -0.0438718 0.0438718 0.9990371 -2.052269 5.0478897)" fill-rule="evenodd" clip-rule="evenodd" fill="#F5896F" cx="113.9785156" cy="49.2802734" rx="31.2077827" ry="40.0522652"/>
		
			<ellipse transform="matrix(0.9989828 -0.0450914 0.0450914 0.9989828 -2.0960541 5.1962242)" fill-rule="evenodd" clip-rule="evenodd" fill="#F58A70" cx="114.1308594" cy="49.059082" rx="30.9592247" ry="39.7333031"/>
		
			<ellipse transform="matrix(0.9989257 -0.0463402 0.0463402 0.9989257 -2.1403809 5.3483238)" fill-rule="evenodd" clip-rule="evenodd" fill="#F58A70" cx="114.2822266" cy="48.8376465" rx="30.7097492" ry="39.4137115"/>
		
			<ellipse transform="matrix(0.9988661 -0.047607 0.047607 0.9988661 -2.1847229 5.5029907)" fill-rule="evenodd" clip-rule="evenodd" fill="#F58B71" cx="114.434082" cy="48.6162109" rx="30.4617863" ry="39.0950928"/>
		
			<ellipse transform="matrix(0.9988047 -0.0488797 0.0488797 0.9988047 -2.2285538 5.6587563)" fill-rule="evenodd" clip-rule="evenodd" fill="#F58C72" cx="114.5856934" cy="48.3947754" rx="30.2131157" ry="38.7756195"/>
		
			<ellipse transform="matrix(0.9987389 -0.0502058 0.0502058 0.9987389 -2.27388 5.8212318)" fill-rule="evenodd" clip-rule="evenodd" fill="#F58C72" cx="114.7373047" cy="48.1733398" rx="29.9645462" ry="38.4566956"/>
		
			<ellipse transform="matrix(0.9986719 -0.0515209 0.0515209 0.9986719 -2.3179398 5.9829025)" fill-rule="evenodd" clip-rule="evenodd" fill="#F58D73" cx="114.8896484" cy="47.9519043" rx="29.7162247" ry="38.1378059"/>
		
			<ellipse transform="matrix(0.9986011 -0.0528745 0.0528745 0.9986011 -2.3628006 6.1495094)" fill-rule="evenodd" clip-rule="evenodd" fill="#F58D74" cx="115.0410156" cy="47.7304688" rx="29.4679775" ry="37.8190346"/>
		
			<ellipse transform="matrix(0.9985277 -0.0542437 0.0542437 0.9985277 -2.4074478 6.318428)" fill-rule="evenodd" clip-rule="evenodd" fill="#F68E74" cx="115.1928711" cy="47.5087891" rx="29.2192879" ry="37.5005493"/>
		
			<ellipse transform="matrix(0.9984512 -0.0556352 0.0556352 0.9984512 -2.4522095 6.490448)" fill-rule="evenodd" clip-rule="evenodd" fill="#F68F75" cx="115.3442383" cy="47.2875977" rx="28.9711418" ry="37.1821671"/>
		
			<ellipse transform="matrix(0.9983708 -0.0570602 0.0570602 0.9983708 -2.4974365 6.6669121)" fill-rule="evenodd" clip-rule="evenodd" fill="#F68F76" cx="115.4960938" cy="47.0661621" rx="28.722578" ry="36.8630447"/>
		
			<ellipse transform="matrix(0.9982869 -0.0585084 0.0585084 0.9982869 -2.5426941 6.8466415)" fill-rule="evenodd" clip-rule="evenodd" fill="#F69077" cx="115.6481934" cy="46.8447266" rx="28.4748058" ry="36.5450134"/>
		
			<ellipse transform="matrix(0.9981999 -0.0599743 0.0599743 0.9981999 -2.5877686 7.0289383)" fill-rule="evenodd" clip-rule="evenodd" fill="#F69177" cx="115.7998047" cy="46.6235352" rx="28.2265911" ry="36.2258682"/>
		
			<ellipse transform="matrix(0.9981081 -0.061483 0.061483 0.9981081 -2.6335678 7.2168083)" fill-rule="evenodd" clip-rule="evenodd" fill="#F69178" cx="115.9511719" cy="46.4018555" rx="27.978714" ry="35.907795"/>
		
			<ellipse transform="matrix(0.9980135 -0.0630009 0.0630009 0.9980135 -2.6787872 7.4063683)" fill-rule="evenodd" clip-rule="evenodd" fill="#F69279" cx="116.1035156" cy="46.1806641" rx="27.7308693" ry="35.5892563"/>
		
			<ellipse transform="matrix(0.9979146 -0.0645484 0.0645484 0.9979146 -2.7241287 7.5999069)" fill-rule="evenodd" clip-rule="evenodd" fill="#F69379" cx="116.2548828" cy="45.9589844" rx="27.4821167" ry="35.2713509"/>
		
			<ellipse transform="matrix(0.9978105 -0.0661382 0.0661382 0.9978105 -2.7701416 7.7990799)" fill-rule="evenodd" clip-rule="evenodd" fill="#F6937A" cx="116.4067383" cy="45.737793" rx="27.2349243" ry="34.9535027"/>
		
			<ellipse transform="matrix(0.9977036 -0.0677318 0.0677318 0.9977036 -2.815239 7.9992371)" fill-rule="evenodd" clip-rule="evenodd" fill="#F6947B" cx="116.5583496" cy="45.5163574" rx="26.9870224" ry="34.6354485"/>
		
			<ellipse transform="matrix(0.9975902 -0.0693821 0.0693821 0.9975902 -2.8614197 8.2067337)" fill-rule="evenodd" clip-rule="evenodd" fill="#F6957B" cx="116.7099609" cy="45.295166" rx="26.7392426" ry="34.3168221"/>
		
			<ellipse transform="matrix(0.997474 -0.0710335 0.0710335 0.997474 -2.906517 8.4149666)" fill-rule="evenodd" clip-rule="evenodd" fill="#F6957C" cx="116.8618164" cy="45.0732422" rx="26.4922142" ry="33.9999733"/>
		
			<ellipse transform="matrix(0.9973518 -0.0727278 0.0727278 0.9973518 -2.9521179 8.6289253)" fill-rule="evenodd" clip-rule="evenodd" fill="#F6967D" cx="117.0136719" cy="44.8520508" rx="26.2443047" ry="33.6815224"/>
		
			<ellipse transform="matrix(0.997223 -0.0744729 0.0744729 0.997223 -2.9983902 8.8495941)" fill-rule="evenodd" clip-rule="evenodd" fill="#F6977D" cx="117.1655273" cy="44.6303711" rx="25.9965076" ry="33.3646317"/>
		
			<ellipse transform="matrix(0.9970903 -0.0762296 0.0762296 0.9970903 -3.0439301 9.0722733)" fill-rule="evenodd" clip-rule="evenodd" fill="#F6977E" cx="117.3173828" cy="44.4091797" rx="25.7497292" ry="33.0463829"/>
		
			<ellipse transform="matrix(0.9969507 -0.0780332 0.0780332 0.9969507 -3.08992 9.3011856)" fill-rule="evenodd" clip-rule="evenodd" fill="#F6987F" cx="117.4685059" cy="44.1877441" rx="25.501833" ry="32.7295151"/>
		
			<ellipse transform="matrix(0.9968053 -0.0798697 0.0798697 0.9968053 -3.1358109 9.5348015)" fill-rule="evenodd" clip-rule="evenodd" fill="#F69980" cx="117.6208496" cy="43.9663086" rx="25.2547531" ry="32.4120903"/>
		
			<ellipse transform="matrix(0.9966542 -0.0817333 0.0817333 0.9966542 -3.1813889 9.7722931)" fill-rule="evenodd" clip-rule="evenodd" fill="#F79980" cx="117.7724609" cy="43.7451172" rx="25.0074978" ry="32.0946732"/>
		
			<ellipse transform="matrix(0.9964966 -0.083633 0.083633 0.9964966 -3.22686 10.0148048)" fill-rule="evenodd" clip-rule="evenodd" fill="#F79A81" cx="117.9238281" cy="43.5234375" rx="24.7605743" ry="31.7773914"/>
		
			<ellipse transform="matrix(0.9963304 -0.0855904 0.0855904 0.9963304 -3.2729568 10.2650871)" fill-rule="evenodd" clip-rule="evenodd" fill="#F79B82" cx="118.0761719" cy="43.3022461" rx="24.5137844" ry="31.4606323"/>
		
			<ellipse transform="matrix(0.9961595 -0.0875573 0.0875573 0.9961595 -3.3179855 10.5171356)" fill-rule="evenodd" clip-rule="evenodd" fill="#F79B82" cx="118.2275391" cy="43.0808105" rx="24.2670269" ry="31.1433506"/>
		
			<ellipse transform="matrix(0.9959791 -0.0895863 0.0895863 0.9959791 -3.3635712 10.777504)" fill-rule="evenodd" clip-rule="evenodd" fill="#F79C83" cx="118.3793945" cy="42.8588867" rx="24.0199223" ry="30.8276119"/>
		
			<ellipse transform="matrix(0.9957917 -0.0916459 0.0916459 0.9957917 -3.4087524 11.0423126)" fill-rule="evenodd" clip-rule="evenodd" fill="#F79D84" cx="118.5310059" cy="42.6376953" rx="23.7731419" ry="30.5103226"/>
		
			<ellipse transform="matrix(0.995595 -0.0937586 0.0937586 0.995595 -3.4540939 11.3143616)" fill-rule="evenodd" clip-rule="evenodd" fill="#F79D85" cx="118.6826172" cy="42.4162598" rx="23.5264874" ry="30.194294"/>
		
			<ellipse transform="matrix(0.9953898 -0.0959126 0.0959126 0.9953898 -3.4991608 11.5922546)" fill-rule="evenodd" clip-rule="evenodd" fill="#F79E85" cx="118.8344727" cy="42.1948242" rx="23.2806702" ry="29.8780785"/>
		
			<ellipse transform="matrix(0.995176 -0.0981058 0.0981058 0.995176 -3.543869 11.8757286)" fill-rule="evenodd" clip-rule="evenodd" fill="#F79F86" cx="118.9863281" cy="41.9736328" rx="23.033968" ry="29.5615749"/>
		
			<ellipse transform="matrix(0.9949515 -0.1003565 0.1003565 0.9949515 -3.5886459 12.1670818)" fill-rule="evenodd" clip-rule="evenodd" fill="#F79F87" cx="119.1381836" cy="41.7521973" rx="22.787405" ry="29.2455521"/>
		
			<ellipse transform="matrix(0.9947174 -0.1026516 0.1026516 0.9947174 -3.6330338 12.4647007)" fill-rule="evenodd" clip-rule="evenodd" fill="#F7A088" cx="119.2900391" cy="41.5307617" rx="22.5419312" ry="28.9296856"/>
		
			<ellipse transform="matrix(0.9944731 -0.1049914 0.1049914 0.9944731 -3.6770096 12.7686138)" fill-rule="evenodd" clip-rule="evenodd" fill="#F7A188" cx="119.4411621" cy="41.3095703" rx="22.2953434" ry="28.6133232"/>
		
			<ellipse transform="matrix(0.994217 -0.1073893 0.1073893 0.994217 -3.7207642 13.0806427)" fill-rule="evenodd" clip-rule="evenodd" fill="#F8A189" cx="119.5932617" cy="41.0876465" rx="22.0498772" ry="28.2987232"/>
		
			<ellipse transform="matrix(0.9939513 -0.1098219 0.1098219 0.9939513 -3.7637024 13.3978291)" fill-rule="evenodd" clip-rule="evenodd" fill="#F8A28A" cx="119.7451172" cy="40.8662109" rx="21.8037586" ry="27.9837208"/>
		
			<ellipse transform="matrix(0.9936697 -0.1123405 0.1123405 0.9936697 -3.807106 13.7265244)" fill-rule="evenodd" clip-rule="evenodd" fill="#F8A38B" cx="119.8964844" cy="40.6450195" rx="21.5583439" ry="27.6679497"/>
		
			<ellipse transform="matrix(0.9933778 -0.1148937 0.1148937 0.9933778 -3.8493958 14.0605431)" fill-rule="evenodd" clip-rule="evenodd" fill="#F8A48B" cx="120.0488281" cy="40.4233398" rx="21.313015" ry="27.3529987"/>
		
			<ellipse transform="matrix(0.9930722 -0.1175055 0.1175055 0.9930722 -3.8912582 14.4026966)" fill-rule="evenodd" clip-rule="evenodd" fill="#F8A48C" cx="120.2001953" cy="40.2021484" rx="21.0678291" ry="27.0379734"/>
		
			<ellipse transform="matrix(0.9927508 -0.120191 0.120191 0.9927508 -3.9328613 14.7550278)" fill-rule="evenodd" clip-rule="evenodd" fill="#F8A58D" cx="120.3518066" cy="39.9807129" rx="20.8225784" ry="26.7233543"/>
		
			<ellipse transform="matrix(0.992414 -0.1229409 0.1229409 0.992414 -3.9739075 15.1164436)" fill-rule="evenodd" clip-rule="evenodd" fill="#F8A68E" cx="120.5036621" cy="39.7592773" rx="20.5772419" ry="26.408905"/>
		
			<ellipse transform="matrix(0.9920629 -0.1257429 0.1257429 0.9920629 -4.0139771 15.4853687)" fill-rule="evenodd" clip-rule="evenodd" fill="#F8A68F" cx="120.6552734" cy="39.5380859" rx="20.3322792" ry="26.0944538"/>
		
			<ellipse transform="matrix(0.991694 -0.1286196 0.1286196 0.991694 -4.0534744 15.8647194)" fill-rule="evenodd" clip-rule="evenodd" fill="#F8A78F" cx="120.8071289" cy="39.3166504" rx="20.0882397" ry="25.7804279"/>
		
			<ellipse transform="matrix(0.9913066 -0.1315722 0.1315722 0.9913066 -4.0923004 16.2547073)" fill-rule="evenodd" clip-rule="evenodd" fill="#F8A890" cx="120.9589844" cy="39.0952148" rx="19.8434048" ry="25.4671078"/>
		
			<ellipse transform="matrix(0.9909004 -0.1345973 0.1345973 0.9909004 -4.130249 16.6549301)" fill-rule="evenodd" clip-rule="evenodd" fill="#F8A891" cx="121.1108398" cy="38.8737793" rx="19.5987511" ry="25.1529179"/>
		
			<ellipse transform="matrix(0.990477 -0.1376784 0.1376784 0.990477 -4.1667709 17.0633335)" fill-rule="evenodd" clip-rule="evenodd" fill="#F8A992" cx="121.2626953" cy="38.6520996" rx="19.3552189" ry="24.8398247"/>
		
			<ellipse transform="matrix(0.9900331 -0.1408347 0.1408347 0.9900331 -4.2022552 17.4823456)" fill-rule="evenodd" clip-rule="evenodd" fill="#F8AA92" cx="121.4140625" cy="38.4306641" rx="19.1103916" ry="24.526804"/>
		
			<ellipse transform="matrix(0.9895633 -0.1440984 0.1440984 0.9895633 -4.2371826 17.9162292)" fill-rule="evenodd" clip-rule="evenodd" fill="#F8AA93" cx="121.565918" cy="38.2094727" rx="18.867321" ry="24.2137337"/>
		
			<ellipse transform="matrix(0.9890735 -0.1474237 0.1474237 0.9890735 -4.2703552 18.3590908)" fill-rule="evenodd" clip-rule="evenodd" fill="#F8AB94" cx="121.7172852" cy="37.987793" rx="18.6239071" ry="23.9014854"/>
		
			<ellipse transform="matrix(0.9885563 -0.1508523 0.1508523 0.9885563 -4.3025894 18.8164349)" fill-rule="evenodd" clip-rule="evenodd" fill="#F8AC95" cx="121.8691406" cy="37.7668457" rx="18.3802605" ry="23.5887222"/>
		
			<ellipse transform="matrix(0.9880157 -0.1543539 0.1543539 0.9880157 -4.3328934 19.2844448)" fill-rule="evenodd" clip-rule="evenodd" fill="#F9AD96" cx="122.0214844" cy="37.545166" rx="18.1372852" ry="23.27738"/>
		
			<ellipse transform="matrix(0.9874452 -0.1579618 0.1579618 0.9874452 -4.3618698 19.7672291)" fill-rule="evenodd" clip-rule="evenodd" fill="#F9AD96" cx="122.1728516" cy="37.3237305" rx="17.8945847" ry="22.9656124"/>
		
			<ellipse transform="matrix(0.9868454 -0.1616666 0.1616666 0.9868454 -4.3890762 20.2638073)" fill-rule="evenodd" clip-rule="evenodd" fill="#F9AE97" cx="122.3242188" cy="37.1022949" rx="17.6521282" ry="22.6538315"/>
		
			<ellipse transform="matrix(0.9862137 -0.1654768 0.1654768 0.9862137 -4.4144363 20.7753983)" fill-rule="evenodd" clip-rule="evenodd" fill="#F9AF98" cx="122.4760742" cy="36.8808594" rx="17.4094467" ry="22.342783"/>
		
			<ellipse transform="matrix(0.9855511 -0.1693783 0.1693783 0.9855511 -4.4375153 21.3001957)" fill-rule="evenodd" clip-rule="evenodd" fill="#F9AF99" cx="122.6279297" cy="36.659668" rx="17.1669884" ry="22.0318356"/>
		
			<ellipse transform="matrix(0.9848543 -0.1733838 0.1733838 0.9848543 -4.4581833 21.8398113)" fill-rule="evenodd" clip-rule="evenodd" fill="#F9B09A" cx="122.7792969" cy="36.4379883" rx="16.9252892" ry="21.7218094"/>
		
			<ellipse transform="matrix(0.9841179 -0.1775164 0.1775164 0.9841179 -4.4766159 22.3975792)" fill-rule="evenodd" clip-rule="evenodd" fill="#F9B19B" cx="122.9316406" cy="36.2165527" rx="16.6839218" ry="21.411747"/>
		
			<ellipse transform="matrix(0.9833469 -0.1817383 0.1817383 0.9833469 -4.4919891 22.9683304)" fill-rule="evenodd" clip-rule="evenodd" fill="#F9B19B" cx="123.0830078" cy="35.9951172" rx="16.4427681" ry="21.1022434"/>
		
			<ellipse transform="matrix(0.9825259 -0.186126 0.186126 0.9825259 -4.5050278 23.5624199)" fill-rule="evenodd" clip-rule="evenodd" fill="#F9B29C" cx="123.2353516" cy="35.7739258" rx="16.2020626" ry="20.793026"/>
		
			<ellipse transform="matrix(0.9816642 -0.1906183 0.1906183 0.9816642 -4.5145264 24.1715488)" fill-rule="evenodd" clip-rule="evenodd" fill="#F9B39D" cx="123.3862305" cy="35.5522461" rx="15.9611158" ry="20.484684"/>
		
			<ellipse transform="matrix(0.98075 -0.1952679 0.1952679 0.98075 -4.5209045 24.8032417)" fill-rule="evenodd" clip-rule="evenodd" fill="#F9B49E" cx="123.5385742" cy="35.3310547" rx="15.7210894" ry="20.1755505"/>
		
			<ellipse transform="matrix(0.9797904 -0.2000267 0.2000267 0.9797904 -4.5231018 25.45084)" fill-rule="evenodd" clip-rule="evenodd" fill="#F9B49F" cx="123.6899414" cy="35.109375" rx="15.481328" ry="19.8685074"/>
		
			<ellipse transform="matrix(0.9787753 -0.2049367 0.2049367 0.9787753 -4.5213623 26.1202183)" fill-rule="evenodd" clip-rule="evenodd" fill="#F9B59F" cx="123.8417969" cy="34.8881836" rx="15.2414656" ry="19.5604191"/>
		
			<ellipse transform="matrix(0.9776984 -0.2100136 0.2100136 0.9776984 -4.5152435 26.8134766)" fill-rule="evenodd" clip-rule="evenodd" fill="#FAB6A0" cx="123.9936523" cy="34.666748" rx="15.0020494" ry="19.2535572"/>
		
			<ellipse transform="matrix(0.9765657 -0.2152195 0.2152195 0.9765657 -4.5039825 27.5257282)" fill-rule="evenodd" clip-rule="evenodd" fill="#FAB7A1" cx="124.1455078" cy="34.4450684" rx="14.7639523" ry="18.9474678"/>
		
			<ellipse transform="matrix(0.9753615 -0.2206127 0.2206127 0.9753615 -4.4877777 28.264698)" fill-rule="evenodd" clip-rule="evenodd" fill="#FAB7A2" cx="124.296875" cy="34.2241211" rx="14.5258646" ry="18.6415901"/>
		
			<ellipse transform="matrix(0.974088 -0.2261697 0.2261697 0.974088 -4.4655914 29.0275993)" fill-rule="evenodd" clip-rule="evenodd" fill="#FAB8A3" cx="124.4487305" cy="34.0024414" rx="14.2877045" ry="18.3366432"/>
		
			<ellipse transform="matrix(0.972734 -0.2319236 0.2319236 0.972734 -4.4372559 29.818882)" fill-rule="evenodd" clip-rule="evenodd" fill="#FAB9A4" cx="124.6005859" cy="33.7810059" rx="14.0500822" ry="18.0320778"/>
		
			<ellipse transform="matrix(0.9713039 -0.2378418 0.2378418 0.9713039 -4.4019165 30.6342583)" fill-rule="evenodd" clip-rule="evenodd" fill="#FAB9A4" cx="124.7519531" cy="33.5593262" rx="13.8133831" ry="17.7285137"/>
		
			<ellipse transform="matrix(0.9697775 -0.2439908 0.2439908 0.9697775 -4.3592834 31.4830589)" fill-rule="evenodd" clip-rule="evenodd" fill="#FABAA5" cx="124.9042969" cy="33.3381348" rx="13.5773325" ry="17.4249268"/>
		
			<ellipse transform="matrix(0.9681696 -0.2502953 0.2502953 0.9681696 -4.3083801 32.3549614)" fill-rule="evenodd" clip-rule="evenodd" fill="#FABBA6" cx="125.0556641" cy="33.1166992" rx="13.3416634" ry="17.1220608"/>
		
			<ellipse transform="matrix(0.9664467 -0.2568672 0.2568672 0.9664467 -4.2486725 33.2653351)" fill-rule="evenodd" clip-rule="evenodd" fill="#FABCA7" cx="125.2070313" cy="32.8955078" rx="13.1067677" ry="16.8201981"/>
		
			<ellipse transform="matrix(0.9646236 -0.2636309 0.2636309 0.9646236 -4.1790771 34.204483)" fill-rule="evenodd" clip-rule="evenodd" fill="#FABCA8" cx="125.359375" cy="32.6738281" rx="12.8723707" ry="16.5195694"/>
		
			<ellipse transform="matrix(0.9626802 -0.2706415 0.2706415 0.9626802 -4.0989838 35.1796722)" fill-rule="evenodd" clip-rule="evenodd" fill="#FABDA9" cx="125.5112305" cy="32.4526367" rx="12.6381578" ry="16.2192211"/>
		
			<ellipse transform="matrix(0.9606074 -0.277909 0.277909 0.9606074 -4.0071716 36.1924362)" fill-rule="evenodd" clip-rule="evenodd" fill="#FABEAA" cx="125.6625977" cy="32.2312012" rx="12.4051762" ry="15.9201336"/>
		
			<ellipse transform="matrix(0.9583996 -0.2854299 0.2854299 0.9583996 -3.9025421 37.2428207)" fill-rule="evenodd" clip-rule="evenodd" fill="#FABEAA" cx="125.8144531" cy="32.0095215" rx="12.1723919" ry="15.6220922"/>
		
			<ellipse transform="matrix(0.9560412 -0.2932323 0.2932323 0.9560412 -3.7839813 38.33461)" fill-rule="evenodd" clip-rule="evenodd" fill="#FABFAB" cx="125.9658203" cy="31.7880859" rx="11.9409237" ry="15.3249578"/>
		
			<ellipse transform="matrix(0.9535224 -0.301322 0.301322 0.9535224 -3.6500549 39.4693108)" fill-rule="evenodd" clip-rule="evenodd" fill="#FBC0AC" cx="126.1181641" cy="31.5666504" rx="11.7102804" ry="15.028595"/>
		
			<ellipse transform="matrix(0.9508364 -0.3096938 0.3096938 0.9508364 -3.4996185 40.6459503)" fill-rule="evenodd" clip-rule="evenodd" fill="#FBC1AD" cx="126.2695313" cy="31.345459" rx="11.4804354" ry="14.7334166"/>
		
			<ellipse transform="matrix(0.9479517 -0.3184142 0.3184142 0.9479517 -3.330307 41.874321)" fill-rule="evenodd" clip-rule="evenodd" fill="#FBC1AE" cx="126.4213867" cy="31.1240234" rx="11.2511301" ry="14.4390516"/>
		
			<ellipse transform="matrix(0.944867 -0.3274544 0.3274544 0.944867 -3.1408539 43.1505585)" fill-rule="evenodd" clip-rule="evenodd" fill="#FBC2AF" cx="126.5727539" cy="30.9025879" rx="11.0232735" ry="14.1467171"/>
		
			<ellipse transform="matrix(0.9415699 -0.3368177 0.3368177 0.9415699 -2.9294281 44.4757996)" fill-rule="evenodd" clip-rule="evenodd" fill="#FBC3B0" cx="126.7246094" cy="30.6811523" rx="10.7958412" ry="13.8554201"/>
		
			<ellipse transform="matrix(0.9380154 -0.3465936 0.3465936 0.9380154 -2.6928101 45.8627853)" fill-rule="evenodd" clip-rule="evenodd" fill="#FBC3B0" cx="126.8769531" cy="30.4599609" rx="10.5702305" ry="13.565156"/>
		
			<ellipse transform="matrix(0.9342138 -0.3567136 0.3567136 0.9342138 -2.4297028 47.3019867)" fill-rule="evenodd" clip-rule="evenodd" fill="#FBC4B1" cx="127.0283203" cy="30.2382813" rx="10.3456392" ry="13.2772141"/>
	</g>
	<g>
		<path fill="#6E6F71" d="M108.5605469,304.6865234c-0.1972656-0.0039063-0.3945313-0.0566406-0.5761719-0.1660156
			c-0.5605469-0.34375-0.2109375-0.6064453,0.1210938-1.1855469c8.2636719-14.3554688,2.9824219-23.5888672-2.5175781-33.7177734
			c-2.6699219-4.9189453-5.4321289-10.0087891-6.9985352-16.1484375c-4.8632813-19.0595703-0.9638672-29.6357422,9.4145508-54.84375
			c15.9199219-38.6777344-5.2539063-56.6865234-6.1542969-57.4277344c-0.5078125-0.4189453-1.081543-0.9785156-0.6757813-1.5039063
			c0.4082031-0.5273438,0.78125-0.1875,1.2949219,0.2304688c0.234375,0.1933594,23.6621094,19.25,7.0078125,59.7070313
			c-10.1430664,24.6416016-13.8598633,35.3730469-9.1879883,53.6894531
			c1.4907227,5.84375,4.2368164,10.5996094,6.8364258,15.3828125c5.609375,10.3408203,10.7714844,18.6503906,2.0839844,35.1943359
			C109,304.3017578,108.9726563,304.6953125,108.5605469,304.6865234L108.5605469,304.6865234z"/>
	</g>
	<path fill-rule="evenodd" clip-rule="evenodd" fill="#EF4036" d="M98.3051758,137.5263672
		c0,0,3.4624023,2.7353516,4.6987305,4.6767578c1.2363281,1.9394531,1.1777344,4.8027344,1.1777344,4.8027344
		c-0.4277344,0.375-1.0625,0.0224609-2.0117188,0.1953125c-0.9511719,0.1708984-2.2192383,0.8671875-3.3422852,0.84375
		c-1.1210938-0.0244141-1.6425781-0.6660156-2.5849609-0.8779297c-0.9423828-0.2109375-2.3066406,0.0078125-2.7177734-0.3837891
		l1.3613281-2.2539063c0,0,0.3916016-0.8398438,0.7324219-2.390625s1.1777344-2.3613281,1.1777344-2.3613281l1.3623047-2.2539063
		l0.0361328,0.0009766l0.0371094,0.0009766h0.0371094L98.3051758,137.5263672z"/>
	<g>
		<path fill="#BE202E" d="M96.222168,139.3105469l5.5961914,0.1171875c0.3300781,0.0078125,0.3242188,0.3203125,0.3164063,0.7050781
			s-0.015625,0.6962891-0.3457031,0.6894531l-5.5961914-0.1171875c-0.3300781-0.0078125-0.34375-0.3203125-0.3359375-0.7041016
			C95.8647461,139.6162109,95.8911133,139.3046875,96.222168,139.3105469L96.222168,139.3105469z"/>
	</g>
</g>
</svg>
